<svg width="55" height="56" viewBox="0 0 55 56" fill="none" xmlns="http://www.w3.org/2000/svg">
<g id="Logo">
<path id="Vector" d="M19.9142 33.5481C20.598 32.9274 20.9436 32.1621 20.9381 31.2778V30.3239H17.5941V30.8145C17.5941 31.0306 17.5118 31.2082 17.3473 31.3638C17.1681 31.5213 16.9469 31.6037 16.6817 31.6146H10.8384C10.5769 31.611 10.3594 31.5304 10.182 31.3766C10.0047 31.2118 9.92056 31.0324 9.92056 30.8145V27.6764C9.92056 27.4475 9.99918 27.2736 10.171 27.1234C10.3575 26.9531 10.5714 26.8671 10.8329 26.8762H16.6945C16.9597 26.8653 17.1608 26.9385 17.3454 27.1198C17.5155 27.2699 17.5941 27.4475 17.5941 27.6764V28.1817H20.9381V27.215C20.9436 26.3288 20.5999 25.5635 19.9142 24.9428C19.2451 24.3294 18.4205 24.02 17.4624 24.02H10.0485C9.10146 24.02 8.27871 24.3313 7.60406 24.9428C6.92026 25.5635 6.57288 26.3288 6.57288 27.2131V31.2796C6.57288 32.1658 6.9166 32.9292 7.59674 33.5499C8.2714 34.1633 9.09598 34.4727 10.0485 34.4727H17.4624C18.4205 34.4727 19.2451 34.1614 19.9142 33.5499V33.5481ZM8.05566 33.0446C7.5163 32.5521 7.25485 31.9735 7.25485 31.2778V27.2113C7.25485 26.5156 7.51813 25.9388 8.06114 25.4463C8.6133 24.9446 9.26419 24.6993 10.0467 24.6993H17.4606C18.2541 24.6993 18.905 24.9428 19.4535 25.4445C19.9965 25.9388 20.258 26.5156 20.2543 27.2113V27.4988H18.2614C18.223 27.1472 18.0676 26.8506 17.8062 26.6181C17.5008 26.3178 17.1132 26.1732 16.6781 26.1933H10.8347C10.3978 26.1842 10.0266 26.3306 9.71761 26.6108C9.39766 26.8872 9.23676 27.2443 9.23676 27.6745V30.8127C9.23676 31.2247 9.39765 31.5817 9.72493 31.8838C10.0339 32.1511 10.4032 32.2903 10.8311 32.2957H16.6927C17.1279 32.2774 17.4972 32.1365 17.8025 31.8673C18.064 31.6201 18.2175 31.3309 18.2614 31.005H20.2561V31.2796C20.2598 31.9735 19.9983 32.5502 19.4553 33.0446C18.9068 33.5463 18.2559 33.7898 17.4624 33.7898H10.0485C9.26053 33.7898 8.60781 33.5463 8.05566 33.0446Z" fill="#50EBFF"/>
<path id="Vector_2" d="M45.2385 28.4156C45.5073 28.1666 45.6462 27.8407 45.6389 27.4873C45.6444 27.1083 45.5073 26.7842 45.2403 26.548C44.9862 26.2935 44.6516 26.1727 44.2585 26.1928H37.2578V28.7726L44.2585 28.7799C44.6626 28.7799 44.9935 28.6554 45.2385 28.4174V28.4156ZM37.9398 26.8739H44.275C44.5584 26.8593 44.69 26.96 44.7631 27.0351L44.7851 27.0552C44.9057 27.1596 44.9606 27.2932 44.9588 27.4873C44.9624 27.6612 44.9039 27.7967 44.7704 27.9212C44.6498 28.0384 44.4834 28.0952 44.2603 28.0952L37.9416 28.0878V26.8721L37.9398 26.8739Z" fill="#50EBFF"/>
<path id="Vector_3" d="M37.9398 30.9255H41.8908L44.8253 34.4701H48.8422L45.5621 30.7735C46.2368 30.5978 46.8237 30.2664 47.3137 29.783C47.9554 29.1349 48.2809 28.3586 48.2809 27.4742C48.2809 26.5167 47.906 25.6909 47.1656 25.0171C46.4342 24.3525 45.542 24.0156 44.5145 24.0156H34.5939V34.4701H37.938V30.9255H37.9398ZM37.2578 33.789H35.2759V24.6986H44.5145C45.3793 24.6986 46.0978 24.9677 46.7067 25.5225C47.3082 26.0681 47.5989 26.7071 47.5989 27.4742C47.5989 28.181 47.3466 28.7797 46.831 29.2996C46.3026 29.8196 45.659 30.1181 44.8655 30.2096L44.2146 30.2847L47.3228 33.7872H45.1434L42.209 30.2426H37.256V33.7872L37.2578 33.789Z" fill="#50EBFF"/>
<path id="Vector_4" d="M30.6027 20.1638H27.7925V24.0161H27.2093V20.1638H24.3991V24.0161H21.5488V34.4706H24.8928V30.9113H32.7418V28.0972H24.8928V26.8741H33.9961V24.0161H30.6045V20.1638H30.6027ZM33.3141 24.699V26.193H24.2108V28.7801H32.0599V30.2302H24.2108V33.7895H22.2289V24.699H25.0793V20.8467H26.5273V24.699H28.4727V20.8467H29.9207V24.699H33.3123H33.3141Z" fill="#50EBFF"/>
<path id="Vector_5" d="M40.4245 42.4897C40.099 42.1327 39.6365 41.9038 39.1172 41.9038C38.1391 41.9038 37.3419 42.7003 37.3419 43.6816C37.3419 44.663 38.1372 45.4594 39.1172 45.4594C40.0972 45.4594 40.8925 44.663 40.8925 43.6816C40.8925 43.3667 40.803 43.0756 40.6603 42.8193C42.5106 41.2227 44.0647 39.2911 45.2166 37.1123H44.7503C43.6405 39.1574 42.1706 40.9792 40.4263 42.4915L40.4245 42.4897ZM39.1172 44.7271C38.5413 44.7271 38.0733 44.2584 38.0733 43.6816C38.0733 43.1049 38.5413 42.6362 39.1172 42.6362C39.6932 42.6362 40.1612 43.1049 40.1612 43.6816C40.1612 44.2584 39.6932 44.7271 39.1172 44.7271Z" fill="#50EBFF"/>
<path id="Vector_6" d="M10.9664 36.8416H10.5093C13.7399 43.1985 20.3348 47.567 27.9315 47.567C29.332 47.567 30.6978 47.4132 32.016 47.1313V46.712C30.6996 47.0013 29.3338 47.1569 27.9315 47.1569C20.567 47.1569 14.1623 42.966 10.9664 36.8416Z" fill="#50EBFF"/>
<path id="Vector_7" d="M17.5246 13.2959C18.5027 13.2959 19.2999 12.4994 19.2999 11.5181C19.2999 11.3203 19.2597 11.1354 19.2012 10.9578C21.8212 9.6066 24.7886 8.84128 27.9333 8.84128C34.4074 8.84128 40.1393 12.0783 43.6021 17.0218H44.0958C40.5762 11.8421 34.6469 8.43115 27.9333 8.43115C24.7282 8.43115 21.706 9.21661 19.0348 10.5935C18.7221 10.0845 18.1663 9.74209 17.5264 9.74209C16.5483 9.74209 15.7511 10.5385 15.7511 11.5199C15.7511 12.5013 16.5464 13.2977 17.5264 13.2977L17.5246 13.2959ZM17.5246 10.4726C18.1005 10.4726 18.5686 10.9413 18.5686 11.5181C18.5686 12.0948 18.1005 12.5635 17.5246 12.5635C16.9487 12.5635 16.4806 12.0948 16.4806 11.5181C16.4806 10.9413 16.9487 10.4726 17.5246 10.4726Z" fill="#50EBFF"/>
<path id="Vector_8" d="M27.5 3.20044C13.8441 3.20044 2.73517 14.3251 2.73517 28.0002C2.73517 41.6752 13.8441 52.798 27.4981 52.798C41.1522 52.798 52.2611 41.6734 52.2611 28.0002C52.2611 14.3269 41.154 3.20044 27.5 3.20044ZM27.5 50.9781C14.8461 50.9781 4.55253 40.6701 4.55253 27.9983C4.55253 15.3266 14.8461 5.02037 27.5 5.02037C40.1539 5.02037 50.4474 15.3284 50.4474 28.0002C50.4474 40.6719 40.1539 50.98 27.5 50.98V50.9781Z" fill="#50EBFF"/>
<path id="Vector_9" d="M27.5 1.79614C13.0707 1.79614 1.33282 13.5506 1.33282 28.0002C1.33282 42.4497 13.0707 54.2024 27.4981 54.2024C41.9255 54.2024 53.6635 42.4479 53.6635 28.0002C53.6635 13.5524 41.9274 1.79614 27.5 1.79614ZM27.5 53.7465C13.3231 53.7465 1.78808 42.1952 1.78808 27.9983C1.78808 13.8014 13.3212 2.25204 27.5 2.25204C41.6787 2.25204 53.2119 13.8033 53.2119 28.0002C53.2119 42.1971 41.6769 53.7483 27.5 53.7483V53.7465Z" fill="#50EBFF"/>
<path id="Vector_10" d="M27.5 0.461182C12.3358 0.461182 0 12.8144 0 27.9999C0 43.1855 12.3358 55.5387 27.5 55.5387C42.6642 55.5387 55 43.1855 55 27.9999C55 12.8144 42.6624 0.461182 27.5 0.461182ZM27.5 55.0828C12.5863 55.0828 0.453427 42.9329 0.453427 27.9999C0.453427 13.067 12.5863 0.915248 27.5 0.915248C42.4137 0.915248 54.5447 13.0652 54.5447 27.9981C54.5447 42.931 42.4119 55.081 27.5 55.081V55.0828Z" fill="#50EBFF"/>
</g>
</svg>
