<svg width="131" height="38" viewBox="0 0 131 38" fill="none" xmlns="http://www.w3.org/2000/svg">
<path d="M48.431 22.8734L46.4301 28.432C46.4301 28.6553 46.2076 28.6553 46.2076 28.6553H43.0949C42.8724 28.6553 42.8724 28.6553 42.8724 28.432C44.6507 23.7636 47.319 15.7593 49.3199 10.4225C49.3199 10.201 49.5426 9.75594 49.5426 8.64431C49.5426 8.42177 49.5426 8.42177 49.7652 8.42177H53.9893C54.212 8.19923 54.212 8.42177 54.212 8.42177C56.4342 14.8693 59.1028 21.7619 61.3261 28.2106C61.3261 28.4322 61.3261 28.4322 61.1046 28.4322H57.5459C57.3243 28.4322 57.3243 28.4322 57.3243 28.2106L55.3225 22.6523H48.431V22.8734ZM54.6558 19.7612C53.9893 17.7604 52.4326 13.5362 51.9884 11.3128C51.5435 13.3137 50.2092 16.8711 49.3201 19.7612H54.6558ZM63.328 21.0954C63.328 16.6486 66.6631 13.091 71.9977 13.091C72.6664 13.091 73.333 13.091 73.7782 13.3135V6.64344C73.7782 6.4209 73.7782 6.4209 73.9997 6.4209H77.3347C77.5562 6.4209 77.5562 6.4209 77.5562 6.64344V26.8753C77.5562 27.0986 77.5562 27.0986 77.3347 27.0986C75.3329 27.9868 73.1094 28.6553 71.1097 28.6553C66.4394 28.8771 63.328 26.4322 63.328 21.0954ZM73.5544 16.426C73.1094 16.2035 72.4428 16.2035 71.7761 16.2035C68.8863 16.2035 67.108 17.9829 67.108 21.0954C67.108 24.6517 69.1078 25.9871 71.5548 25.9871C72.2214 25.9871 73.1094 25.7635 73.7781 25.7635V16.426H73.5544ZM96.2332 20.8739C96.2332 25.7637 93.1196 28.8771 88.6729 28.8771C83.3381 28.8771 81.1149 24.8755 81.1149 21.0954C81.1149 16.426 84.2263 13.3135 88.8966 13.3135C93.5649 13.091 96.2332 16.6486 96.2332 20.8739ZM84.895 20.8739C84.895 23.9853 86.2282 25.9873 88.6731 25.9873C90.6749 25.9873 92.2318 24.6519 92.2318 20.8739C92.2318 17.9829 91.1201 15.7595 88.4518 15.7595C86.4495 15.9809 84.895 17.7604 84.895 20.8739ZM102.903 6.64344C103.125 6.64344 103.125 6.64344 103.125 6.86598V13.9801C104.237 13.5361 105.348 13.3135 106.46 13.3135C110.685 13.3135 113.354 16.426 113.354 20.4289C113.354 25.7635 109.128 29.0986 104.237 29.0986C102.682 29.0986 101.125 28.877 99.5684 28.432C99.3469 28.432 99.3469 28.2104 99.3469 28.2104V6.86598C99.3469 6.64344 99.3469 6.64344 99.5684 6.64344H102.903ZM105.793 16.2035C104.905 16.2035 104.015 16.426 103.349 16.6486V25.7635C103.794 25.9872 104.46 25.9871 105.127 25.9871C107.35 25.9871 110.018 24.2088 110.018 20.65C109.795 17.7604 108.017 16.2035 105.793 16.2035ZM120.469 21.7619C120.469 24.209 122.024 25.7635 125.137 25.7635C126.249 25.7635 127.582 25.5419 128.917 25.097C128.917 25.097 129.139 25.097 129.139 25.3206V27.7655C129.139 27.9868 129.139 27.9868 128.917 28.2104C127.806 28.877 126.249 29.0986 124.247 29.0986C118.688 29.0986 116.465 25.3206 116.465 21.3165C116.465 16.871 119.133 13.3134 123.804 13.3134C128.472 13.3134 130.25 16.871 130.25 19.7609C130.25 21.0952 130.029 21.7618 130.029 21.7618L120.469 21.7619ZM125.358 19.316C126.47 19.316 126.694 19.0947 126.694 19.0947V18.6494C126.694 17.7604 126.027 15.7595 123.58 15.7595C121.58 15.7595 120.469 17.3151 120.245 19.316H125.358Z" fill="white"/>
<path d="M27.2078 0.0982666L42.7714 37.2279V0.0982666H27.2078ZM0.75 0.0982666V37.2279L16.3136 0.0982666H0.75ZM14.9793 29.6696H22.0946L25.2071 37.2279H31.6546L21.6495 13.6599L14.9793 29.6696Z" fill="#ED2224"/>
</svg>
