<svg width="140" height="30" viewBox="0 0 140 30" fill="none" xmlns="http://www.w3.org/2000/svg">
<path d="M28.7921 18.6723C26.8399 26.5025 18.9092 31.2679 11.078 29.3153C3.25006 27.3631 -1.51532 19.4319 0.437787 11.6021C2.38907 3.77093 10.3198 -0.994905 18.1487 0.957289C25.9794 2.90948 30.7443 10.8416 28.7921 18.6723Z" fill="#F7931A"/>
<path d="M21.0592 13.0545C21.3501 11.1096 19.8693 10.0641 17.8445 9.3666L18.5013 6.73201L16.8976 6.33234L16.2582 8.89751C15.8366 8.79245 15.4036 8.69334 14.9733 8.59513L15.6173 6.01307L14.0146 5.6134L13.3573 8.24708C13.0083 8.16761 12.6657 8.08904 12.3332 8.00637L12.3351 7.99815L10.1234 7.44593L9.69681 9.15878C9.69681 9.15878 10.8867 9.43146 10.8615 9.44836C11.5111 9.61051 11.6284 10.0403 11.6088 10.3811L10.8606 13.3824C10.9054 13.3939 10.9634 13.4103 11.0273 13.4359C10.9739 13.4226 10.9168 13.408 10.8579 13.3939L9.80917 17.5983C9.72969 17.7957 9.52826 18.0916 9.07424 17.9793C9.09023 18.0026 7.90859 17.6883 7.90859 17.6883L7.11246 19.524L9.19939 20.0443C9.58764 20.1416 9.96812 20.2434 10.3427 20.3394L9.67899 23.0041L11.2809 23.4038L11.9381 20.7673C12.3757 20.8861 12.8005 20.9957 13.2161 21.0989L12.5612 23.723L14.1648 24.1227L14.8285 21.463C17.5631 21.9805 19.6195 21.7718 20.485 19.2984C21.1825 17.3069 20.4503 16.1582 19.0115 15.4091C20.0593 15.1675 20.8486 14.4782 21.0592 13.0545ZM17.395 18.1926C16.8995 20.1841 13.5464 19.1075 12.4593 18.8375L13.3399 15.3072C14.427 15.5785 17.913 16.1157 17.395 18.1926ZM17.8911 13.0257C17.4389 14.8372 14.6481 13.9168 13.7428 13.6912L14.5412 10.4893C15.4465 10.715 18.362 11.1361 17.8911 13.0257Z" fill="white"/>
<path d="M42.8329 9.36352C44.0182 9.36352 45.0423 9.57591 45.9028 9.99293C46.7675 10.4141 47.4809 10.9814 48.0533 11.6948C48.6178 12.4119 49.038 13.2501 49.3093 14.2107C49.5788 15.174 49.714 16.2094 49.714 17.318C49.714 19.0208 49.4021 20.6295 48.7722 22.146C48.1423 23.6647 47.2877 24.982 46.2006 26.1056C45.1145 27.2279 43.8319 28.1126 42.3529 28.7662C40.8762 29.4203 39.2707 29.7474 37.5469 29.7474C37.324 29.7474 36.9321 29.741 36.3785 29.7295C35.8249 29.7181 35.1886 29.661 34.4761 29.5647C33.7589 29.4646 33.0007 29.3166 32.2 29.1184C31.3998 28.9238 30.6397 28.6511 29.924 28.3049L36.3241 1.41269L42.0565 0.524292L39.7649 10.0674C40.2554 9.84631 40.7497 9.67503 41.243 9.55033C41.7367 9.42746 42.2666 9.36352 42.8329 9.36352ZM38.0246 25.1999C38.8879 25.1999 39.7014 24.9875 40.4656 24.5704C41.232 24.153 41.8934 23.5893 42.4474 22.8873C43.0015 22.182 43.44 21.3877 43.7597 20.5002C44.0794 19.6128 44.2411 18.6869 44.2411 17.7236C44.2411 16.5401 44.0434 15.617 43.6492 14.9497C43.255 14.2851 42.5255 13.9508 41.4663 13.9508C41.1192 13.9508 40.672 14.017 40.1175 14.1353C39.5612 14.2609 39.0633 14.5217 38.617 14.9141L36.177 25.0487C36.3241 25.0747 36.4543 25.0994 36.5653 25.1227C36.674 25.1478 36.7941 25.1656 36.9138 25.1779C37.0403 25.1921 37.1851 25.1994 37.36 25.1994C37.535 25.1994 37.7538 25.1999 38.0246 25.1999ZM55.6588 29.2326H50.1836L54.8074 9.77597H60.32L55.6588 29.2326ZM58.3231 7.40539C57.5589 7.40539 56.866 7.17792 56.2512 6.72207C55.6314 6.26897 55.3244 5.57149 55.3244 4.63148C55.3244 4.11443 55.4295 3.62935 55.6378 3.17167C55.8492 2.71491 56.1256 2.32164 56.4718 1.9873C56.8176 1.65569 57.2182 1.39077 57.6731 1.19116C58.1308 0.994755 58.6177 0.896552 59.1365 0.896552C59.9002 0.896552 60.5895 1.12402 61.2066 1.57987C61.8214 2.038 62.1306 2.73547 62.1306 3.67046C62.1306 4.18934 62.026 4.67624 61.8159 5.133C61.6072 5.58976 61.3308 5.98303 60.9846 6.31738C60.6416 6.64945 60.2373 6.91346 59.7833 7.11123C59.3252 7.31084 58.8401 7.40539 58.3231 7.40539ZM65.1183 4.92838L70.8529 4.03998L69.4447 9.77506H75.5863L74.4773 14.2869H68.3727L66.7466 21.0927C66.5968 21.66 66.5119 22.1898 66.4881 22.6822C66.4612 23.1769 66.5237 23.6017 66.6717 23.9593C66.8188 24.3179 67.0833 24.5942 67.4669 24.7897C67.8488 24.9884 68.3955 25.0884 69.1127 25.0884C69.7032 25.0884 70.2788 25.0322 70.8351 24.9208C71.3882 24.8112 71.9487 24.6586 72.516 24.459L72.9243 28.6776C72.1844 28.9489 71.3832 29.1823 70.5199 29.3788C69.6553 29.5779 68.6317 29.6738 67.4487 29.6738C65.7477 29.6738 64.429 29.4212 63.4895 28.9183C62.5513 28.4118 61.8881 27.7198 61.4911 26.8437C61.0997 25.9709 60.9248 24.9646 60.9736 23.8309C61.0243 22.6945 61.1956 21.5001 61.4911 20.2422L65.1183 4.92838ZM75.3451 21.4631C75.3451 19.7872 75.6165 18.2069 76.1586 16.7274C76.6999 15.2466 77.4796 13.9517 78.4913 12.8404C79.4994 11.7346 80.7276 10.8585 82.1733 10.2154C83.612 9.57591 85.223 9.25344 86.9985 9.25344C88.1098 9.25344 89.1023 9.35849 89.9756 9.56906C90.8526 9.78145 91.646 10.056 92.3636 10.4004L90.4753 14.6939C89.982 14.4938 89.47 14.3175 88.9406 14.1577C88.4108 13.9946 87.764 13.916 86.9989 13.916C85.1714 13.916 83.7267 14.5459 82.6515 15.8016C81.5804 17.0581 81.041 18.7495 81.041 20.8711C81.041 22.1286 81.3123 23.1453 81.8567 23.9232C82.3984 24.7011 83.3992 25.0879 84.8522 25.0879C85.5693 25.0879 86.2613 25.013 86.924 24.8669C87.5918 24.7189 88.1815 24.5325 88.7008 24.3124L89.1096 28.7137C88.4172 28.9823 87.6535 29.2248 86.8158 29.4372C85.9762 29.6423 84.9768 29.7487 83.818 29.7487C82.2884 29.7487 80.9934 29.5249 79.9342 29.0841C78.8745 28.6365 77.9989 28.0423 77.3092 27.2895C76.6158 26.535 76.118 25.6539 75.8101 24.6426C75.5023 23.6323 75.3451 22.5707 75.3451 21.4631ZM99.6676 29.7487C98.3608 29.7487 97.2258 29.5496 96.2629 29.1554C95.3028 28.7612 94.5076 28.2081 93.8787 27.491C93.2488 26.7775 92.7774 25.932 92.4545 24.9578C92.1315 23.984 91.9762 22.9055 91.9762 21.7239C91.9762 20.2417 92.2142 18.76 92.6952 17.2824C93.1739 15.8016 93.8841 14.471 94.8242 13.2885C95.7569 12.1041 96.9074 11.1357 98.2622 10.3807C99.6156 9.63072 101.172 9.25344 102.921 9.25344C104.204 9.25344 105.333 9.45304 106.309 9.84723C107.28 10.2405 108.081 10.7982 108.713 11.5117C109.339 12.2288 109.815 13.0706 110.134 14.0462C110.456 15.0182 110.615 16.0994 110.615 17.2819C110.615 18.7595 110.38 20.2413 109.915 21.7235C109.448 23.1983 108.756 24.5321 107.843 25.7174C106.931 26.8999 105.791 27.8678 104.422 28.6196C103.054 29.3714 101.468 29.7487 99.6676 29.7487ZM102.404 13.9165C101.592 13.9165 100.875 14.1522 100.261 14.6176C99.6439 15.0886 99.1259 15.6805 98.7084 16.3944C98.2864 17.1115 97.9735 17.8935 97.762 18.7435C97.5524 19.5954 97.4496 20.4007 97.4496 21.1657C97.4496 22.4004 97.6488 23.3619 98.0402 24.0538C98.4371 24.7422 99.1501 25.0884 100.187 25.0884C101.001 25.0884 101.715 24.8545 102.333 24.3841C102.946 23.9168 103.464 23.3244 103.885 22.6091C104.304 21.8956 104.62 21.1114 104.831 20.26C105.038 19.4109 105.144 18.601 105.144 17.8373C105.144 16.6059 104.945 15.6421 104.55 14.9511C104.156 14.2627 103.44 13.9165 102.404 13.9165ZM116.581 29.2326H111.102L115.725 9.77597H121.241L116.581 29.2326ZM119.242 7.40539C118.478 7.40539 117.785 7.17792 117.172 6.72207C116.555 6.26897 116.245 5.57149 116.245 4.63148C116.245 4.11443 116.352 3.62935 116.56 3.17167C116.769 2.71491 117.047 2.32164 117.394 1.9873C117.738 1.65569 118.142 1.39077 118.596 1.19116C119.051 0.994755 119.538 0.896552 120.055 0.896552C120.82 0.896552 121.512 1.12402 122.127 1.57987C122.744 2.038 123.055 2.73547 123.055 3.67046C123.055 4.18934 122.944 4.67624 122.737 5.133C122.53 5.58976 122.252 5.98303 121.907 6.31738C121.56 6.64945 121.161 6.91346 120.706 7.11123C120.247 7.31084 119.761 7.40539 119.242 7.40539ZM125.187 10.6607C125.602 10.5392 126.067 10.3931 126.571 10.2341C127.078 10.0751 127.644 9.92716 128.276 9.79379C128.901 9.6563 129.607 9.54485 130.383 9.45852C131.159 9.37037 132.043 9.32743 133.026 9.32743C135.913 9.32743 137.904 10.1683 139.003 11.8451C140.101 13.5219 140.291 15.8166 139.578 18.7253L137.06 29.2308H131.549L133.99 18.9463C134.138 18.3041 134.255 17.6834 134.342 17.0768C134.429 16.4757 134.424 15.9459 134.322 15.4873C134.225 15.0342 133.995 14.6633 133.64 14.376C133.278 14.0933 132.733 13.9512 131.992 13.9512C131.278 13.9512 130.552 14.028 129.811 14.1759L126.222 29.2303H120.708L125.187 10.6607Z" fill="white"/>
</svg>
