<svg width="206" height="10" viewBox="0 0 206 10" fill="none" xmlns="http://www.w3.org/2000/svg">
<g id="Text">
<path id="Vector" d="M10.5055 0.133789C11.3765 0.133789 12.1138 0.40923 12.7174 0.963938C13.3286 1.51865 13.6304 2.18812 13.6266 2.97237V3.59976H10.9754V3.43526C10.9754 3.11009 10.8532 2.83847 10.6125 2.62424C10.3756 2.39471 10.0815 2.28376 9.7262 2.29907H3.90424C3.56424 2.29524 3.26626 2.40618 3.01795 2.63189C2.77728 2.8423 2.65503 3.10626 2.65503 3.43526V6.56076C2.65503 6.87445 2.77727 7.14224 3.02558 7.37178C3.27008 7.58601 3.56424 7.69313 3.90424 7.69695H9.7262C10.0815 7.68165 10.3756 7.57071 10.6125 7.36413C10.8532 7.13842 10.9754 6.87063 10.9754 6.56076V6.41156H13.6266V7.02366C13.6304 7.8079 13.3286 8.4812 12.7174 9.03208C12.1138 9.58679 11.3727 9.86223 10.5055 9.86223H3.12109C2.25773 9.86223 1.51662 9.58679 0.909207 9.03208C0.305617 8.47737 0 7.8079 0 7.02366V2.9762C0 2.19195 0.305613 1.51865 0.916844 0.967768C1.52807 0.413059 2.26155 0.137618 3.12109 0.137618H10.5055V0.133789Z" fill="#50EBFF"/>
<path id="Vector_2" d="M23.731 1.36963C24.5715 1.36963 25.2858 1.63742 25.8665 2.173C26.4586 2.69711 26.7528 3.34745 26.7528 4.12022C26.7528 4.77822 26.5198 5.36354 26.0499 5.87616C25.58 6.36966 24.9955 6.67953 24.2926 6.80578L27.0088 9.86624H24.0672L21.5764 6.86699H17.9931V9.86624H15.4909V1.36963H23.731ZM17.9931 4.8203H23.5095C23.7501 4.8203 23.9335 4.75527 24.0634 4.62902C24.2009 4.50278 24.2697 4.33446 24.2697 4.12405C24.2697 3.91364 24.2009 3.74914 24.0634 3.61907C23.9373 3.489 23.7501 3.42779 23.5095 3.43544H17.9931V4.8203Z" fill="#50EBFF"/>
<path id="Vector_3" d="M32.1164 1.36963L35.5622 4.79352L39.0156 1.36963H42.6907L36.8114 6.80195V9.86241H34.3168V6.80195L28.4452 1.36963H32.1202H32.1164Z" fill="#50EBFF"/>
<path id="Vector_4" d="M52.3939 1.36963C53.2879 1.36963 54.0519 1.66038 54.6861 2.23421C55.324 2.81187 55.6411 3.51195 55.6373 4.33063C55.6411 5.14165 55.324 5.83791 54.6861 6.41939C54.0557 6.99323 53.2917 7.28015 52.3939 7.28015H46.6216V9.86624H44.1232V1.36963H52.3939ZM46.6216 5.22581H52.1838C52.478 5.21051 52.7148 5.13017 52.902 4.97715C53.0854 4.805 53.1771 4.59077 53.1771 4.33063C53.1771 4.07049 53.0854 3.84478 52.902 3.6841C52.7187 3.51195 52.478 3.43162 52.1838 3.43544H46.6216V5.22581Z" fill="#50EBFF"/>
<path id="Vector_5" d="M68.5648 1.36963V3.43544H64.2824V9.86241H61.784V3.43544H57.5015V1.36963H68.5648Z" fill="#50EBFF"/>
<path id="Vector_6" d="M79.6548 1.36963C80.4303 1.36963 81.0874 1.61447 81.626 2.10797C82.18 2.60147 82.4474 3.19825 82.4359 3.89834V7.34135C82.4436 8.03761 82.1723 8.6344 81.6184 9.13173C81.0874 9.61758 80.4341 9.86241 79.6548 9.86241H73.1949C72.4385 9.86241 71.7852 9.61757 71.2313 9.12407C70.6926 8.63058 70.4214 8.03761 70.4214 7.34135V3.89834C70.4367 3.19825 70.7079 2.60147 71.2389 2.10797C71.7929 1.61447 72.4461 1.36963 73.1949 1.36963H79.6548ZM73.1949 3.6841C73.0153 3.84478 72.9236 4.04753 72.9236 4.28855V6.9435C72.9236 7.17686 73.0153 7.37579 73.1987 7.54794C73.3821 7.70096 73.6036 7.7813 73.8596 7.7966H78.9939C79.2652 7.7813 79.4867 7.70096 79.6586 7.54794C79.842 7.37579 79.9337 7.17686 79.9299 6.9435V4.28855C79.9299 4.04753 79.8382 3.84478 79.6548 3.6841C79.4753 3.51195 79.2537 3.43162 78.9939 3.43544H73.8596C73.6036 3.43162 73.3821 3.51578 73.1911 3.6841H73.1949Z" fill="#50EBFF"/>
<path id="Vector_7" d="M96.032 0.133789V2.29907H86.9667V4.19656H94.7828V6.31975H86.9667V9.86606H84.3155V0.133789H96.032Z" fill="#50EBFF"/>
<path id="Vector_8" d="M103.814 1.36963L109.204 9.86624H106.495L105.353 8.05291H99.9133L98.7557 9.86624H96.0472L101.445 1.36963H103.814ZM101.162 6.07892H104.104L102.637 3.76444L101.162 6.07892Z" fill="#50EBFF"/>
<path id="Vector_9" d="M114.522 1.36963L117.891 4.12022L121.28 1.36963H125.13L119.847 5.44769L125.593 9.86624H121.742L117.891 6.77135L114.059 9.86624H110.209L115.947 5.44769L110.671 1.36963H114.522Z" fill="#50EBFF"/>
<path id="Vector_10" d="M136.568 0.133789C137.508 0.133789 138.314 0.436011 138.979 1.04428C139.647 1.65254 139.979 2.38323 139.979 3.24016C139.979 4.03206 139.689 4.71683 139.116 5.29832C138.539 5.86833 137.821 6.20116 136.962 6.30062L140.125 9.86606H137.038L134.115 6.33505H129.684V9.86606H127.033V0.133789H136.572H136.568ZM129.68 4.1889L136.312 4.19656C136.625 4.19656 136.874 4.10856 137.057 3.92876C137.256 3.74513 137.351 3.5156 137.347 3.24781C137.351 2.96472 137.256 2.73518 137.057 2.56686C136.874 2.3794 136.625 2.29141 136.312 2.30289H129.68V4.19273V4.1889Z" fill="#50EBFF"/>
<path id="Vector_11" d="M152.433 1.3693V3.43512H144.487V4.56366H151.375V6.59504H144.487V7.79627H152.433V9.86209H141.977V1.36548H152.433V1.3693Z" fill="#50EBFF"/>
<path id="Vector_12" d="M162.561 1.36963C163.455 1.36963 164.219 1.66038 164.853 2.23421C165.491 2.81187 165.808 3.51195 165.804 4.33063C165.808 5.14165 165.491 5.83791 164.853 6.41939C164.222 6.99323 163.458 7.28015 162.561 7.28015H156.788V9.86624H154.29V1.36963H162.561ZM156.788 5.22581H162.351C162.645 5.21051 162.882 5.13017 163.069 4.97715C163.252 4.805 163.344 4.59077 163.344 4.33063C163.344 4.07049 163.252 3.84478 163.069 3.6841C162.885 3.51195 162.645 3.43162 162.351 3.43544H156.788V5.22581Z" fill="#50EBFF"/>
<path id="Vector_13" d="M176.902 1.36963C177.677 1.36963 178.334 1.61447 178.873 2.10797C179.427 2.60147 179.694 3.19825 179.683 3.89834V7.34135C179.69 8.03761 179.419 8.6344 178.865 9.13173C178.334 9.61758 177.681 9.86241 176.902 9.86241H170.442C169.685 9.86241 169.032 9.61757 168.478 9.12407C167.939 8.63058 167.668 8.03761 167.668 7.34135V3.89834C167.683 3.19825 167.955 2.60147 168.486 2.10797C169.04 1.61447 169.693 1.36963 170.442 1.36963H176.902ZM170.442 3.6841C170.262 3.84478 170.17 4.04753 170.17 4.28855V6.9435C170.17 7.17686 170.262 7.37579 170.445 7.54794C170.629 7.70096 170.85 7.7813 171.106 7.7966H176.241C176.512 7.7813 176.734 7.70096 176.905 7.54794C177.089 7.37579 177.18 7.17686 177.177 6.9435V4.28855C177.177 4.04753 177.085 3.84478 176.902 3.6841C176.722 3.51195 176.5 3.43162 176.241 3.43544H171.106C170.85 3.43162 170.629 3.51578 170.438 3.6841H170.442Z" fill="#50EBFF"/>
<path id="Vector_14" d="M189.802 1.36963C190.643 1.36963 191.357 1.63742 191.938 2.173C192.53 2.69711 192.824 3.34745 192.824 4.12022C192.824 4.77822 192.591 5.36354 192.121 5.87616C191.651 6.36966 191.067 6.67953 190.364 6.80578L193.08 9.86624H190.139L187.648 6.86699H184.064V9.86624H181.562V1.36963H189.802ZM184.064 4.8203H189.581C189.822 4.8203 190.005 4.75527 190.135 4.62902C190.272 4.50278 190.341 4.33446 190.341 4.12405C190.341 3.91364 190.272 3.74914 190.135 3.61907C190.009 3.489 189.822 3.42779 189.581 3.43544H184.064V4.8203Z" fill="#50EBFF"/>
<path id="Vector_15" d="M206 1.36963V3.43544H201.718V9.86241H199.219V3.43544H194.937V1.36963H206Z" fill="#50EBFF"/>
</g>
</svg>
