<svg width="24" height="25" viewBox="0 0 24 25" fill="none" xmlns="http://www.w3.org/2000/svg">
<path d="M20.3303 4.81979C18.7767 4.09291 17.1156 3.56465 15.3789 3.26385C15.1656 3.64947 14.9164 4.16812 14.7446 4.58071C12.8985 4.30307 11.0693 4.30307 9.25716 4.58071C9.08539 4.16812 8.83055 3.64947 8.61536 3.26385C6.87681 3.56465 5.21376 4.09485 3.66019 4.82364C0.526643 9.55884 -0.322811 14.1764 0.101917 18.7285C2.18025 20.2805 4.19441 21.2233 6.17457 21.8403C6.66349 21.1674 7.09953 20.4521 7.47518 19.6983C6.75975 19.4264 6.07453 19.0909 5.42707 18.7015C5.59884 18.5742 5.76686 18.4412 5.92918 18.3043C9.87819 20.1513 14.1689 20.1513 18.0707 18.3043C18.235 18.4412 18.403 18.5742 18.5728 18.7015C17.9235 19.0928 17.2364 19.4283 16.521 19.7002C16.8966 20.4521 17.3308 21.1693 17.8216 21.8422C19.8036 21.2252 21.8197 20.2824 23.898 18.7285C24.3964 13.4515 23.0467 8.87632 20.3303 4.81979ZM8.01318 15.929C6.82772 15.929 5.85555 14.8223 5.85555 13.4746C5.85555 12.1269 6.80696 11.0183 8.01318 11.0183C9.21942 11.0183 10.1916 12.125 10.1708 13.4746C10.1727 14.8223 9.21942 15.929 8.01318 15.929ZM15.9867 15.929C14.8013 15.929 13.8291 14.8223 13.8291 13.4746C13.8291 12.1269 14.7805 11.0183 15.9867 11.0183C17.193 11.0183 18.1651 12.125 18.1444 13.4746C18.1444 14.8223 17.193 15.929 15.9867 15.929Z" fill="#50EBFF"/>
</svg>
