<svg width="141" height="36" viewBox="0 0 141 36" fill="none" xmlns="http://www.w3.org/2000/svg">
<path d="M11.0093 13.1001V0.124146L0.25 17.9871L11.0093 13.1001Z" fill="#8891B1"/>
<path d="M11.0093 24.3519V13.1001L0.25 17.9871L11.0093 24.3519ZM11.0093 13.1001L21.7815 17.9871L11.0093 0.124146V13.1001Z" fill="#63688E"/>
<path d="M11.0093 13.1001V24.3519L21.7815 17.9871L11.0093 13.1001Z" fill="#464A75"/>
<path d="M11.0093 26.3871L0.25 20.0353L11.0093 35.2019V26.3871Z" fill="#8891B1"/>
<path d="M21.7815 20.0353L11.0093 26.3871V35.2019L21.7815 20.0353Z" fill="#63688E"/>
<path d="M39.7741 20.3983C39.7741 20.6446 39.5537 20.865 39.3074 20.865H30.7C30.9204 22.9131 32.5148 24.9094 34.7704 24.9094C36.313 24.9094 37.4537 24.3131 38.3222 23.0687C38.413 22.939 38.5426 22.8483 38.6982 22.8483C38.9444 22.8483 39.1259 23.0298 39.1259 23.2761C39.1259 23.3668 39.1 23.4316 39.0611 23.4965C38.1926 25.0131 36.4685 25.752 34.7704 25.752C31.8667 25.752 29.8056 23.1594 29.8056 20.3853C29.8056 17.6113 31.8667 15.0316 34.7704 15.0316C37.6741 15.0316 39.7741 17.6242 39.7741 20.3983ZM38.8407 19.9835C38.6593 17.7927 37.0259 15.9131 34.7704 15.9131C32.5148 15.9131 30.9074 17.7927 30.7 19.9835H38.8407ZM50.2352 15.1742C50.4815 15.1742 50.663 15.3946 50.663 15.615C50.663 15.8613 50.4815 16.0557 50.2352 16.0557H47.9278V25.1557C47.9278 25.3761 47.7333 25.5835 47.487 25.5835C47.2407 25.5835 47.0463 25.3631 47.0463 25.1557V16.0557H44.8296C44.5833 16.0557 44.4019 15.8613 44.4019 15.615C44.4019 15.3946 44.5833 15.1742 44.8296 15.1742H47.0463V11.8816C47.0463 11.6353 47.2407 11.4539 47.487 11.4539C47.7333 11.4539 47.9278 11.6353 47.9278 11.8816V15.1742H50.2352ZM64.2611 19.5946V25.0909C64.2611 25.3372 64.1185 25.5187 63.8981 25.5187C63.6519 25.5187 63.5352 25.3372 63.5352 25.0909V19.5946C63.5352 17.7409 62.4593 15.8872 60.3852 15.8872C57.7278 15.8872 56.5481 18.2076 56.6907 20.5798C56.6907 20.6446 56.6778 20.9168 56.6778 20.9557V25.0909C56.6778 25.3372 56.5611 25.5187 56.3148 25.5187C56.0685 25.5187 55.9519 25.3372 55.9519 25.0909V7.03349C55.9519 6.81312 56.0685 6.60571 56.3148 6.60571C56.5611 6.60571 56.6778 6.82608 56.6778 7.03349V17.2483C57.5593 15.9261 58.7389 15.0316 60.2815 15.0316C62.8093 15.0316 64.2611 17.2483 64.2611 19.5946ZM79.7907 20.3983C79.7907 20.6446 79.5704 20.865 79.3241 20.865H70.7167C70.937 22.9131 72.5315 24.9094 74.787 24.9094C76.3296 24.9094 77.4704 24.3131 78.3389 23.0687C78.4296 22.939 78.5593 22.8483 78.7148 22.8483C78.9611 22.8483 79.1426 23.0298 79.1426 23.2761C79.1426 23.3668 79.1167 23.4316 79.0778 23.4965C78.2093 25.0131 76.4852 25.752 74.787 25.752C71.8833 25.752 69.8222 23.1594 69.8222 20.3853C69.8222 17.6113 71.8833 15.0316 74.787 15.0316C77.6907 15.0316 79.7907 17.6242 79.7907 20.3983ZM78.8704 19.9835C78.6889 17.7927 77.0556 15.9131 74.8 15.9131C72.5444 15.9131 70.937 17.7927 70.7296 19.9835H78.8704ZM90.3815 15.615C90.3815 15.8872 90.2259 16.0427 89.9667 16.0816C87.4389 16.4576 86.2852 18.5187 86.2852 20.9298V25.052C86.2852 25.2983 86.0907 25.4798 85.8444 25.4798C85.5981 25.4798 85.4037 25.2983 85.4037 25.052V15.6409C85.4037 15.3946 85.5981 15.2131 85.8444 15.2131C86.0907 15.2131 86.2852 15.3946 86.2852 15.6409V17.5594C87.0111 16.3539 88.4241 15.2131 89.9018 15.2131C90.1222 15.2131 90.3815 15.3687 90.3815 15.615ZM104.537 20.3983C104.537 20.6446 104.317 20.865 104.07 20.865H95.463C95.6833 22.9131 97.2778 24.9094 99.5333 24.9094C101.076 24.9094 102.217 24.3131 103.085 23.0687C103.176 22.939 103.306 22.8483 103.461 22.8483C103.707 22.8483 103.889 23.0298 103.889 23.2761C103.889 23.3668 103.863 23.4316 103.824 23.4965C102.956 25.0131 101.231 25.752 99.5333 25.752C96.6296 25.752 94.5685 23.1594 94.5685 20.3853C94.5685 17.6113 96.6296 15.0316 99.5333 15.0316C102.437 15.0187 104.537 17.6242 104.537 20.3983ZM103.617 19.9835C103.435 17.7927 101.802 15.9131 99.5463 15.9131C97.2907 15.9131 95.6833 17.7927 95.4759 19.9835H103.617ZM118.524 15.7057V25.1427C118.524 25.389 118.304 25.5705 118.083 25.5705C117.837 25.5705 117.643 25.389 117.643 25.1427V23.3668C116.917 24.7798 115.659 25.8039 114.052 25.8039C111.485 25.8039 110.059 23.5872 110.059 21.2409V15.7187C110.059 15.4983 110.254 15.2909 110.5 15.2909C110.746 15.2909 110.941 15.5113 110.941 15.7187V21.2409C110.941 23.0946 111.991 24.9483 114.065 24.9483C116.969 24.9483 117.656 22.239 117.656 19.2446V15.7316C117.656 15.5113 117.85 15.3039 118.096 15.3039C118.304 15.2779 118.524 15.4983 118.524 15.7057ZM140.25 19.5687V25.0909C140.25 25.3372 140.03 25.5187 139.809 25.5187C139.563 25.5187 139.369 25.3372 139.369 25.0909V19.5687C139.369 17.715 138.319 15.9002 136.244 15.9002C133.652 15.9002 132.654 18.6742 132.654 20.839V25.0909C132.654 25.3372 132.433 25.5187 132.213 25.5187C131.967 25.5187 131.772 25.3372 131.772 25.0909V19.5687C131.772 17.715 130.748 15.9002 128.687 15.9002C126.069 15.9002 124.98 17.9613 125.07 20.7094V25.0909C125.07 25.3372 124.876 25.5187 124.63 25.5187C124.383 25.5187 124.189 25.3372 124.189 25.0909V15.6539C124.189 15.4076 124.383 15.2261 124.63 15.2261C124.876 15.2261 125.07 15.4076 125.07 15.6539V17.2224C125.796 15.9002 127.157 15.0316 128.7 15.0316C130.463 15.0316 131.824 16.1465 132.381 17.7798C133.094 16.1724 134.481 15.0316 136.27 15.0316C138.811 15.0316 140.25 17.2224 140.25 19.5687Z" fill="white"/>
</svg>
