<svg width="24" height="25" viewBox="0 0 24 25" fill="none" xmlns="http://www.w3.org/2000/svg">
<path fill-rule="evenodd" clip-rule="evenodd" d="M16 3.83466H8C5.23858 3.83466 3 6.07324 3 8.83466V16.8347C3 19.5961 5.23858 21.8347 8 21.8347H16C18.7614 21.8347 21 19.5961 21 16.8347V8.83466C21 6.07324 18.7614 3.83466 16 3.83466ZM19.25 16.8347C19.2445 18.6273 17.7926 20.0792 16 20.0847H8C6.20735 20.0792 4.75549 18.6273 4.75 16.8347V8.83466C4.75549 7.04201 6.20735 5.59015 8 5.58466H16C17.7926 5.59015 19.2445 7.04201 19.25 8.83466V16.8347ZM16.75 9.08466C17.3023 9.08466 17.75 8.63694 17.75 8.08466C17.75 7.53238 17.3023 7.08466 16.75 7.08466C16.1977 7.08466 15.75 7.53238 15.75 8.08466C15.75 8.63694 16.1977 9.08466 16.75 9.08466ZM12 8.33466C9.51472 8.33466 7.5 10.3494 7.5 12.8347C7.5 15.32 9.51472 17.3347 12 17.3347C14.4853 17.3347 16.5 15.32 16.5 12.8347C16.5027 11.6404 16.0294 10.4942 15.1849 9.64974C14.3404 8.80525 13.1943 8.332 12 8.33466ZM9.25 12.8347C9.25 14.3535 10.4812 15.5847 12 15.5847C13.5188 15.5847 14.75 14.3535 14.75 12.8347C14.75 11.3159 13.5188 10.0847 12 10.0847C10.4812 10.0847 9.25 11.3159 9.25 12.8347Z" fill="#50EBFF"/>
</svg>
