<svg width="140" height="29" viewBox="0 0 140 29" fill="none" xmlns="http://www.w3.org/2000/svg">
<path d="M4.58692 18.6348C4.58692 20.2563 4.94283 21.5012 5.40802 22.2544C6.01793 23.2409 6.92764 23.6588 7.85506 23.6588C9.05127 23.6588 10.1456 23.362 12.2544 20.4453C13.9439 18.1076 15.9346 14.8261 17.2741 12.7689L19.5424 9.28372C21.1181 6.86325 22.942 4.17253 25.0331 2.34869C26.7403 0.860085 28.5819 0.0330811 30.4352 0.0330811C33.5468 0.0330811 36.5108 1.83625 38.7791 5.2181C41.2616 8.9219 42.4667 13.5871 42.4667 18.4014C42.4667 21.2635 41.9025 23.3664 40.9426 25.0278C40.0152 26.6346 38.2076 28.2398 35.1669 28.2398V23.6588C37.7705 23.6588 38.4203 21.2664 38.4203 18.5284C38.4203 14.6268 37.5105 10.2968 35.5065 7.20291C34.0844 5.0084 32.2414 3.66747 30.2137 3.66747C28.0207 3.66747 26.2559 5.32148 24.2726 8.27063C23.2181 9.83751 22.1357 11.747 20.9203 13.9016L19.5823 16.2719C16.8945 21.0375 16.2137 22.123 14.8698 23.9143C12.5143 27.051 10.503 28.2398 7.85506 28.2398C4.71392 28.2398 2.72764 26.8797 1.49747 24.8299C0.493249 23.1597 0 20.9681 0 18.4708L4.58692 18.6348Z" fill="#0081FB"/>
<path d="M3.61673 5.54152C5.71968 2.29996 8.75449 0.0330811 12.2353 0.0330811C14.2511 0.0330811 16.2551 0.629706 18.3477 2.33836C20.6368 4.2065 23.0764 7.28266 26.1201 12.3525L27.2115 14.1719C29.8461 18.5609 31.345 20.8189 32.2222 21.8837C33.3505 23.2512 34.1406 23.6588 35.1669 23.6588C37.7705 23.6588 38.4203 21.2664 38.4203 18.5284L42.4667 18.4014C42.4667 21.2635 41.9026 23.3664 40.9427 25.0278C40.0152 26.6346 38.2077 28.2398 35.1669 28.2398C33.2766 28.2398 31.602 27.8293 29.7501 26.0822C28.3264 24.7413 26.6621 22.3592 25.3817 20.2179L21.5731 13.8559C19.6621 10.663 17.9091 8.28245 16.8946 7.20439C15.8032 6.04511 14.4003 4.64511 12.1615 4.64511C10.3494 4.64511 8.81061 5.91663 7.52285 7.86156L3.61673 5.54152Z" fill="url(#paint0_linear_22_147)"/>
<path d="M12.1614 4.64511C10.3494 4.64511 8.81055 5.91663 7.52279 7.86156C5.7019 10.6099 4.58692 14.7035 4.58692 18.6348C4.58692 20.2563 4.94283 21.5012 5.40802 22.2544L1.49747 24.8299C0.493249 23.1597 0 20.9681 0 18.4708C0 13.9297 1.24641 9.19658 3.61667 5.54152C5.71962 2.29996 8.75443 0.0330811 12.2352 0.0330811L12.1614 4.64511Z" fill="url(#paint1_linear_22_147)"/>
<path d="M51.3837 0.925171H56.6898L65.7115 17.2467L74.7348 0.925171H79.9257V27.7437H75.5972V7.18973L67.6845 21.4231H63.6234L55.7122 7.18973V27.7437H51.3837V0.925171ZM93.4885 10.9245C90.3843 10.9245 88.5147 13.2608 88.0672 16.1539H98.6027C98.3856 13.1737 96.6666 10.9245 93.4885 10.9245ZM83.7757 17.802C83.7757 11.7146 87.7099 7.28424 93.5639 7.28424C99.3219 7.28424 102.76 11.6585 102.76 18.1269V19.3157H88.0672C88.5886 22.4627 90.6767 24.5834 94.0438 24.5834C96.7301 24.5834 98.4092 23.7638 100.001 22.2648L102.301 25.0811C100.134 27.0733 97.3784 28.2222 93.8902 28.2222C87.5533 28.2222 83.7757 23.6013 83.7757 17.802ZM108.008 11.3085H104.024V7.7642H108.008V1.90281H112.185V7.7642H118.238V11.3085H112.185V20.2918C112.185 23.3591 113.165 24.449 115.575 24.449C116.676 24.449 117.306 24.3545 118.238 24.1994V27.7053C117.077 28.0332 115.97 28.1838 114.771 28.1838C110.262 28.1838 108.008 25.7205 108.008 20.7895V11.3085ZM135.824 14.7553C134.985 12.6376 133.114 11.0781 130.364 11.0781C126.79 11.0781 124.503 13.6138 124.503 17.7444C124.503 21.7716 126.609 24.4298 130.193 24.4298C133.01 24.4298 135.022 22.7906 135.824 20.7511V14.7553ZM140 27.7437H135.901V24.9467C134.755 26.5933 132.669 28.2222 129.292 28.2222C123.86 28.2222 120.23 23.6752 120.23 17.7444C120.23 11.7574 123.947 7.28424 129.522 7.28424C132.278 7.28424 134.44 8.38593 135.901 10.3309V7.7642H140V27.7437Z" fill="white"/>
<defs>
<linearGradient id="paint0_linear_22_147" x1="9.0085" y1="17.3116" x2="38.249" y2="18.7884" gradientUnits="userSpaceOnUse">
<stop stop-color="#0064E1"/>
<stop offset="0.4" stop-color="#0064E1"/>
<stop offset="0.83" stop-color="#0073EE"/>
<stop offset="1" stop-color="#0082FB"/>
</linearGradient>
<linearGradient id="paint1_linear_22_147" x1="6.64557" y1="20.5605" x2="6.64557" y2="9.77992" gradientUnits="userSpaceOnUse">
<stop stop-color="#0082FB"/>
<stop offset="1" stop-color="#0064E0"/>
</linearGradient>
</defs>
</svg>
