<svg width="141" height="31" viewBox="0 0 141 31" fill="none" xmlns="http://www.w3.org/2000/svg">
<path d="M49.6754 17.935L48.8408 20.2996H48.7713C48.6322 19.7664 48.3772 18.955 47.9599 17.9814L43.4856 6.73777H39.1041V24.658H42.0019V13.5998C42.0019 12.9044 42.0019 12.1161 41.9787 11.1425C41.9556 10.6556 41.9092 10.2847 41.886 10.0065H41.9556C42.0947 10.702 42.2569 11.212 42.3728 11.5366L47.7512 24.6116H49.7913L55.1233 11.4207C55.2392 11.1193 55.3551 10.5165 55.471 10.0065H55.5406C55.471 11.3279 55.4247 12.5102 55.4015 13.2289V24.5884H58.4848V6.69141H54.2655L49.6754 17.935ZM61.4058 11.7452H64.4195V24.5884H61.4058V11.7452ZM62.9358 6.32048C62.4258 6.32048 62.0085 6.50594 61.6608 6.8305C61.3131 7.15506 61.1276 7.57235 61.1276 8.08236C61.1276 8.5692 61.3131 8.98649 61.6608 9.31104C62.0085 9.6356 62.4258 9.79788 62.9358 9.79788C63.4459 9.79788 63.8863 9.61242 64.2109 9.31104C64.5586 8.98649 64.7441 8.5692 64.7441 8.08236C64.7441 7.59553 64.5586 7.17824 64.2109 6.8305C63.9095 6.50594 63.469 6.32048 62.9358 6.32048ZM75.1067 11.6293C74.5504 11.5134 73.9708 11.4438 73.4144 11.4438C72.0466 11.4438 70.7948 11.7452 69.7515 12.348C68.7083 12.9507 67.8738 13.7853 67.3405 14.8285C66.7842 15.8949 66.506 17.1236 66.506 18.5377C66.506 19.7664 66.7842 20.856 67.3174 21.8529C67.8506 22.8265 68.5924 23.6147 69.5893 24.1479C70.5398 24.6811 71.6525 24.9593 72.9044 24.9593C74.3417 24.9593 75.5704 24.658 76.5441 24.1016L76.5672 24.0784V21.2965L76.4513 21.3892C76.0109 21.7138 75.5008 21.992 74.9908 22.1542C74.4576 22.3397 73.9708 22.4324 73.5535 22.4324C72.348 22.4324 71.3975 22.0847 70.7252 21.3197C70.0297 20.5778 69.682 19.5578 69.682 18.2827C69.682 16.9613 70.0297 15.9181 70.7484 15.1531C71.4671 14.388 72.4175 13.9939 73.5767 13.9939C74.5504 13.9939 75.5472 14.3185 76.4513 14.9676L76.5672 15.0603V12.1161L76.5441 12.093C76.15 11.9307 75.7095 11.7452 75.1067 11.6293ZM85.0521 11.5366C84.3102 11.5366 83.6148 11.7684 83.012 12.2552C82.502 12.6725 82.1543 13.2753 81.8529 13.9939H81.8297V11.7452H78.816V24.5884H81.8297V18.0277C81.8297 16.915 82.0615 15.9876 82.5715 15.3153C83.0816 14.6199 83.7307 14.2721 84.5189 14.2721C84.7971 14.2721 85.0753 14.3417 85.423 14.388C85.7476 14.4808 85.9794 14.5735 86.1417 14.6894L86.2576 14.7821V11.7684L86.188 11.7452C85.9794 11.6061 85.5621 11.5366 85.0521 11.5366ZM93.2587 11.467C91.1491 11.467 89.4568 12.093 88.2745 13.3216C87.069 14.5503 86.4894 16.2427 86.4894 18.3755C86.4894 20.3692 87.0922 21.992 88.2513 23.1743C89.4104 24.3334 90.9868 24.9361 92.9574 24.9361C95.0206 24.9361 96.6666 24.3102 97.8489 23.0584C99.0544 21.8065 99.634 20.1373 99.634 18.0741C99.634 16.034 99.0776 14.4112 97.9416 13.2289C96.8521 12.0466 95.2525 11.467 93.2587 11.467ZM95.6697 21.3428C95.1134 22.0615 94.2324 22.4092 93.1428 22.4092C92.0532 22.4092 91.1723 22.0615 90.5464 21.2965C89.9204 20.5778 89.6191 19.5346 89.6191 18.2132C89.6191 16.8454 89.9436 15.8022 90.5464 15.0603C91.1723 14.3185 92.0301 13.9476 93.1196 13.9476C94.1861 13.9476 95.0206 14.2953 95.6234 15.014C96.2261 15.7326 96.5507 16.7759 96.5507 18.1436C96.5043 19.5346 96.2493 20.6242 95.6697 21.3428ZM106.357 17.0772C105.406 16.6831 104.804 16.3818 104.526 16.1267C104.294 15.8949 104.178 15.5704 104.178 15.1531C104.178 14.8053 104.317 14.4576 104.665 14.2258C105.012 13.9939 105.406 13.878 105.986 13.878C106.496 13.878 107.029 13.9708 107.539 14.1099C108.049 14.2489 108.513 14.4576 108.884 14.7358L109 14.8285V12.0002L108.93 11.977C108.582 11.838 108.119 11.6989 107.562 11.5829C107.006 11.4902 106.496 11.4438 106.079 11.4438C104.641 11.4438 103.459 11.7916 102.532 12.5566C101.604 13.2753 101.164 14.2489 101.164 15.3849C101.164 15.9876 101.257 16.5208 101.465 16.9613C101.674 17.4018 101.975 17.8191 102.393 18.1668C102.81 18.4914 103.413 18.8623 104.247 19.21C104.943 19.5114 105.476 19.7432 105.801 19.9287C106.125 20.1142 106.334 20.3228 106.496 20.4851C106.612 20.6705 106.681 20.9024 106.681 21.2037C106.681 22.0615 106.032 22.4788 104.711 22.4788C104.201 22.4788 103.668 22.3861 103.042 22.1774C102.416 21.9688 101.836 21.6674 101.349 21.3197L101.234 21.2269V24.1711L101.303 24.1943C101.744 24.4029 102.277 24.542 102.926 24.7043C103.575 24.8202 104.155 24.913 104.665 24.913C106.218 24.913 107.493 24.5652 108.397 23.8002C109.324 23.0584 109.811 22.1079 109.811 20.8792C109.811 20.0214 109.579 19.2564 109.069 18.6768C108.397 18.1204 107.562 17.5409 106.357 17.0772ZM117.763 11.467C115.653 11.467 113.961 12.093 112.779 13.3216C111.596 14.5503 110.993 16.2427 110.993 18.3755C110.993 20.3692 111.596 21.992 112.755 23.1743C113.914 24.3334 115.491 24.9361 117.461 24.9361C119.525 24.9361 121.171 24.3102 122.353 23.0584C123.558 21.8065 124.138 20.1373 124.138 18.0741C124.138 16.034 123.582 14.4112 122.446 13.2289C121.356 12.0466 119.757 11.467 117.763 11.467ZM120.151 21.3428C119.594 22.0615 118.713 22.4092 117.624 22.4092C116.511 22.4092 115.653 22.0615 115.027 21.2965C114.401 20.5778 114.1 19.5346 114.1 18.2132C114.1 16.8454 114.424 15.8022 115.027 15.0603C115.653 14.3185 116.511 13.9476 117.601 13.9476C118.644 13.9476 119.501 14.2953 120.104 15.014C120.707 15.7326 121.032 16.7759 121.032 18.1436C121.032 19.5346 120.73 20.6242 120.151 21.3428ZM140.25 14.2258V11.7452H137.213V7.94327L137.12 7.96645L134.246 8.82421L134.176 8.84739V11.7452H129.632V10.1224C129.632 9.38059 129.818 8.80103 130.142 8.4301C130.467 8.05918 130.954 7.87372 131.556 7.87372C131.974 7.87372 132.414 7.96645 132.901 8.17509L133.017 8.24464V5.625L132.947 5.60182C132.53 5.46273 131.974 5.37 131.255 5.37C130.351 5.37 129.563 5.57864 128.844 5.92638C128.125 6.32048 127.592 6.85368 127.198 7.57235C126.804 8.26783 126.595 9.05604 126.595 9.96016V11.7452H124.486V14.2026H126.595V24.5884H129.632V14.2258H134.176V20.8328C134.176 23.5452 135.451 24.913 138.001 24.913C138.419 24.913 138.859 24.8434 139.276 24.7739C139.717 24.6811 140.041 24.5652 140.227 24.4725L140.25 24.4493V21.9688L140.134 22.0615C139.949 22.1774 139.786 22.2701 139.508 22.3397C139.276 22.4092 139.068 22.4324 138.905 22.4324C138.303 22.4324 137.885 22.2933 137.584 21.9456C137.306 21.621 137.167 21.0878 137.167 20.2996V14.2258H140.25Z" fill="white"/>
<path d="M0.25 0.710327H14.461V14.9213H0.25V0.710327Z" fill="#F25022"/>
<path d="M15.9446 0.710327H30.1556V14.9213H15.9446V0.710327Z" fill="#7FBA00"/>
<path d="M0.25 16.4049H14.461V30.6159H0.25V16.4049Z" fill="#00A4EF"/>
<path d="M15.9446 16.4049H30.1556V30.6159H15.9446V16.4049Z" fill="#FFB900"/>
</svg>
