<svg width="86" height="80" viewBox="0 0 86 80" fill="none" xmlns="http://www.w3.org/2000/svg">
<path fill-rule="evenodd" clip-rule="evenodd" d="M43.7394 15.0176L65.3814 26.4909C65.9807 26.8379 66.3593 27.4904 66.3593 28.1845V51.1444C66.3626 51.5246 66.2514 51.8833 66.0588 52.1871C65.8712 52.4876 65.5989 52.735 65.2752 52.8978L43.7244 64.3196C43.4235 64.4922 43.0819 64.5811 42.735 64.577C42.388 64.5736 42.051 64.4806 41.7621 64.3113L20.1201 52.838C19.813 52.6603 19.5722 52.4113 19.4062 52.124L19.373 52.0593C19.2219 51.7753 19.1422 51.4599 19.1422 51.1444V28.1845C19.1399 27.8154 19.2436 27.4535 19.4411 27.1417C19.6332 26.8384 19.904 26.5928 20.2247 26.4311L41.7771 15.0076C42.0859 14.8316 42.4278 14.7486 42.7665 14.7502C43.1135 14.7552 43.4505 14.8465 43.7394 15.0176ZM63.6034 64.3711C62.8425 64.0569 61.9881 64.0575 61.2277 64.3727C60.8591 64.5255 60.5254 64.748 60.2465 65.0253L60.2266 65.0452C59.9763 65.2953 59.7713 65.5868 59.6206 65.9069H54.6816V61.7892L51.9091 63.2586V67.2867C51.9091 67.6686 52.0652 68.014 52.3158 68.2647C52.4439 68.3932 52.596 68.4952 52.7635 68.5647C52.931 68.6342 53.1107 68.6699 53.292 68.6698H59.6638C60.0007 69.3186 60.5557 69.8278 61.231 70.1077C61.9814 70.4182 62.8281 70.4199 63.5801 70.116L63.6034 70.1077C64.7638 69.6262 65.5209 68.4938 65.5209 67.2386C65.5209 65.9833 64.7622 64.8526 63.6034 64.3711ZM70.5695 60.0607C70.2557 59.3035 70.2574 58.4435 70.5711 57.6847C70.865 56.979 71.4162 56.4062 72.1051 56.0774V51.1394H69.2679V48.3665H73.4847C73.8666 48.3665 74.2119 48.521 74.4626 48.7717C74.5912 48.8999 74.6933 49.0524 74.7628 49.2202C74.8323 49.388 74.8679 49.568 74.8677 49.7496V56.1222C75.5151 56.456 76.0265 57.0172 76.3054 57.6896C76.6158 58.4401 76.6175 59.2869 76.3137 60.0391L76.3054 60.0623C75.8239 61.2213 74.6933 61.9801 73.4382 61.9801C72.1815 61.9801 71.0509 61.2196 70.5695 60.0607ZM79.3634 44.2156H69.2679L69.2662 41.4493H79.3634C79.6954 40.7802 80.2599 40.2522 80.9522 39.965C81.7026 39.6561 82.5509 39.6511 83.303 39.9566L83.3262 39.965C83.8937 40.1996 84.3787 40.5973 84.72 41.1077C85.0614 41.6181 85.2436 42.2184 85.2438 42.8325C85.2438 44.0877 84.485 45.2218 83.3246 45.6999C82.5735 46.0106 81.7304 46.0136 80.9771 45.7083L80.9539 45.6999C80.2617 45.4138 79.6967 44.8864 79.3634 44.2156ZM81.9915 36.6442H69.2662V33.878H80.6119V24.8404C80.0092 24.4934 79.5477 23.9737 79.2804 23.3295C78.9666 22.5697 78.9666 21.7165 79.2804 20.9568C79.7635 19.7962 80.8908 19.039 82.1475 19.039C83.4026 19.039 84.5365 19.7978 85.0146 20.9584C85.3251 21.7073 85.3284 22.5557 85.0246 23.3062L85.0146 23.3311C84.7042 24.0783 84.1165 24.6744 83.3744 24.9932V35.2611C83.3744 35.643 83.2183 35.9867 82.9693 36.239C82.7097 36.498 82.3581 36.6436 81.9915 36.6442ZM71.1389 29.9627H69.2646V28.0317H69.2795C69.2795 27.7511 69.2513 27.4705 69.1982 27.1932H69.756V23.107C69.0753 22.7749 68.5358 22.2021 68.2452 21.503C67.9331 20.7429 67.9331 19.8904 68.2452 19.1303C68.725 17.9747 69.8523 17.2126 71.1123 17.2126C72.3641 17.2126 73.4864 17.9664 73.9695 19.1104L73.9811 19.1337C74.2949 19.8941 74.2932 20.7442 73.9811 21.5064C73.6973 22.1896 73.1802 22.7498 72.5218 23.0871V28.5796C72.5218 28.9615 72.3658 29.3069 72.1151 29.5576C71.9872 29.6863 71.8351 29.7883 71.6675 29.8578C71.5 29.9274 71.3203 29.963 71.1389 29.9627ZM22.8394 14.9545C23.545 14.6606 24.1178 14.1093 24.4465 13.4186H29.3839V18.3001L32.1563 16.8307V12.0405C32.1563 11.6586 32.002 11.3132 31.7513 11.0625C31.623 10.9338 31.4706 10.8318 31.3028 10.7623C31.135 10.6927 30.9551 10.6571 30.7734 10.6574H24.4033C24.0475 9.97173 23.4487 9.44352 22.7241 9.17605C21.9995 8.90859 21.2012 8.92111 20.4853 9.21116L20.4621 9.21946C19.3033 9.70098 18.5446 10.8317 18.5446 12.087C18.5446 12.5037 18.6292 12.9055 18.782 13.2725C19.4344 14.8465 21.244 15.6153 22.8394 14.9545ZM36.3068 6.16102V14.6307L39.0726 13.1646V6.16102C39.7417 5.8306 40.2713 5.26109 40.5568 4.57036C40.8673 3.81987 40.8706 2.97307 40.5651 2.22091L40.5568 2.196C40.3219 1.62891 39.9241 1.14422 39.4138 0.803167C38.9034 0.462119 38.3035 0.280028 37.6897 0.279909C36.4346 0.279909 35.3024 1.03871 34.8209 2.19766C34.512 2.94977 34.509 3.79284 34.8126 4.54712L34.8226 4.57036C35.1065 5.25611 35.6394 5.83226 36.3068 6.16102ZM43.8772 3.53262C43.8772 4.98712 43.5717 8.59516 43.497 11.8844C44.0482 11.9741 44.5728 12.1584 45.0426 12.4307L46.643 13.2808V4.9124H55.6794C55.7242 4.9921 55.774 5.06848 55.8255 5.1432C56.1691 5.63468 56.634 6.01324 57.1918 6.24404C57.9472 6.55619 58.8071 6.55785 59.5625 6.24404C60.3262 5.92524 60.9272 5.3275 61.2443 4.56206C61.3953 4.19511 61.48 3.79496 61.48 3.37654C61.4799 2.76204 61.2975 2.16139 60.9558 1.65064C60.6142 1.13989 60.1287 0.742011 59.5609 0.507383C58.8096 0.197542 57.9668 0.194561 57.2134 0.499081L57.1901 0.509043C56.8131 0.664334 56.4705 0.892899 56.1824 1.1815C56.0064 1.3575 55.8504 1.55509 55.7209 1.77094C55.6478 1.89215 55.5831 2.01834 55.5266 2.14951H45.2601C44.8783 2.14951 44.533 2.30393 44.2823 2.55465C44.0231 2.81412 43.8774 3.16584 43.8772 3.53262ZM50.5577 14.3866V15.3546L53.3269 16.8224V15.7697H57.4126C57.7446 16.4505 58.3174 16.9901 59.018 17.279C59.7733 17.5928 60.6317 17.5928 61.387 17.279C61.9549 17.0449 62.4405 16.6473 62.7821 16.1368C63.1238 15.6263 63.3062 15.0258 63.3062 14.4115C63.3062 13.1612 62.5525 12.0388 61.4086 11.5556L61.3854 11.544C60.6254 11.2319 59.773 11.2319 59.013 11.544C58.3305 11.8288 57.7707 12.3458 57.4325 13.0035H51.9406C51.5588 13.0035 51.2135 13.1596 50.9628 13.4086C50.8342 13.5369 50.7321 13.6893 50.6626 13.8572C50.5931 14.025 50.5574 14.2049 50.5577 14.3866ZM14.9304 19.1303C15.2441 19.8891 15.2425 20.7492 14.9287 21.5064C14.6349 22.2137 14.0837 22.7865 13.3947 23.1136V28.0516H16.2336V30.8262H12.0151C11.6333 30.8262 11.288 30.6701 11.0373 30.4194C10.9088 30.2913 10.8068 30.1392 10.7373 29.9716C10.6678 29.8041 10.6321 29.6244 10.6322 29.443V23.0705C9.98472 22.7367 9.47338 22.1755 9.19447 21.503C8.88385 20.7513 8.88087 19.9075 9.18617 19.1536L9.19447 19.1287C9.42964 18.5617 9.82747 18.0772 10.3377 17.7362C10.848 17.3951 11.4479 17.213 12.0616 17.2126C13.3183 17.2126 14.4489 17.9714 14.9304 19.1303ZM6.13643 34.9771H16.2336V37.7417H6.13643C5.80332 38.413 5.23831 38.9409 4.54598 39.2277C3.79414 39.5376 2.95086 39.5406 2.19684 39.236L2.17193 39.2277C1.60526 38.9923 1.12094 38.5943 0.780008 38.084C0.439076 37.5737 0.256781 36.974 0.256093 36.3602C0.256093 35.105 1.01479 33.9693 2.1736 33.4911C2.92399 33.1806 3.77068 33.1789 4.52274 33.4828L4.54598 33.4927C5.23662 33.7783 5.80606 34.3097 6.13643 34.9771ZM3.50838 42.5485H16.2353V45.3147H4.88798V54.3523C5.4873 54.6943 5.95547 55.224 6.21944 55.8632C6.53321 56.6203 6.53321 57.4788 6.21944 58.2359C5.73633 59.3949 4.61073 60.1537 3.35232 60.1537C2.84438 60.1531 2.34432 60.028 1.89598 59.7893C1.44763 59.5505 1.06468 59.2054 0.780702 58.7842C0.496721 58.363 0.320373 57.8786 0.267117 57.3734C0.213861 56.8682 0.285322 56.3576 0.475236 55.8865L0.485197 55.8616C0.79731 55.1094 1.38169 54.52 2.12545 54.1978V43.9316C2.12545 43.5497 2.28151 43.2044 2.53053 42.9537C2.65887 42.8251 2.8113 42.7232 2.97909 42.6537C3.14689 42.5841 3.32675 42.5484 3.50838 42.5485ZM14.3609 49.2283H16.2353V51.2971H16.222C16.222 51.5312 16.2403 51.7654 16.2784 51.9978H15.7439V56.084C16.4262 56.4194 16.9624 56.9856 17.2546 57.6896C17.5667 58.4484 17.5667 59.3019 17.2546 60.0607C16.7748 61.2163 15.6476 61.9801 14.3875 61.9801C13.1357 61.9801 12.0134 61.2246 11.5303 60.0806L11.5204 60.059C11.2224 59.3374 11.2069 58.53 11.4769 57.7975C11.747 57.065 12.2829 56.461 12.978 56.1056V50.6114C12.978 50.2312 13.1341 49.8858 13.3831 49.6351C13.5113 49.5063 13.6637 49.4041 13.8315 49.3343C13.9993 49.2645 14.1792 49.2285 14.3609 49.2283ZM47.7587 73.1645V65.4586L45.0277 66.9065L44.9945 66.9248V73.1645C44.3239 73.4986 43.7964 74.0634 43.5086 74.7552C43.1998 75.5073 43.1948 76.3541 43.5003 77.1063L43.5086 77.1295C43.9901 78.2901 45.1207 79.0473 46.3774 79.0473C47.6325 79.0473 48.7647 78.2885 49.2445 77.1279C49.555 76.3774 49.5566 75.5322 49.2528 74.7801L49.2445 74.7568C48.9568 74.0646 48.4293 73.4993 47.7587 73.1645ZM40.1883 75.7946V66.7537L37.4224 65.2876V74.4148H28.3861C28.0443 73.8151 27.5128 73.3461 26.8753 73.0815C26.1153 72.769 25.2626 72.7696 24.5029 73.0831C23.3441 73.5663 22.5871 74.6921 22.5871 75.9506C22.5871 77.2042 23.3458 78.3399 24.5046 78.8181C25.2533 79.1286 26.1 79.132 26.8538 78.8264L26.877 78.8181C27.6274 78.5076 28.2184 77.9199 28.5405 77.1777H38.8053C39.1872 77.1777 39.5325 77.0216 39.7832 76.7709C39.9118 76.643 40.0138 76.4908 40.0834 76.3232C40.1529 76.1557 40.1886 75.976 40.1883 75.7946ZM33.5094 64.9406V63.2138L30.7402 61.746V63.5575H26.6545C26.3242 62.8767 25.7481 62.3354 25.0491 62.0465C24.2897 61.7344 23.4378 61.7344 22.6784 62.0465C22.1107 62.2808 21.6252 62.6784 21.2836 63.1889C20.942 63.6994 20.7595 64.2997 20.7593 64.914C20.7593 66.1659 21.5146 67.2884 22.6585 67.7715L22.6801 67.7815C23.4388 68.0953 24.2938 68.0953 25.0525 67.7815C25.421 67.6288 25.7547 67.4063 26.0353 67.1323L26.0618 67.109C26.2079 66.9613 26.3441 66.7952 26.4653 66.6109C26.5267 66.518 26.5831 66.4216 26.6346 66.3237H32.1265C32.5066 66.3237 32.8536 66.1676 33.1026 65.9169C33.2315 65.7891 33.3338 65.637 33.4036 65.4694C33.4734 65.3018 33.5094 65.1221 33.5094 64.9406ZM27.0729 45.9689V33.3582H31.0473L33.5144 38.0024H33.9759V33.3582H38.0184V45.9689H34.0274L31.5952 40.9944H31.1171V45.9689H27.0729ZM39.8446 45.9689V33.3582H48.2634V36.4366H43.8871V39.2178H47.2175V42.1633H43.8871V45.9689H39.8446ZM49.7127 36.6525V33.3582H58.4269V36.6525H56.1608V45.9689H52.1183V36.6525H49.7127ZM43.7128 18.1358C49.8721 21.4964 56.209 24.7142 62.4263 27.9869C63.1269 28.3555 63.527 29.0711 63.5287 29.8133L63.532 49.5155C63.532 50.3623 63.0256 51.0896 62.2968 51.41L43.7128 61.1931C43.4162 61.3493 43.086 61.431 42.7508 61.431C42.4155 61.431 42.0853 61.3493 41.7887 61.1931C35.6294 57.8324 29.2925 54.6146 23.0752 51.342C22.3729 50.9734 21.9728 50.2561 21.9728 49.5155L21.9679 29.8133C21.9679 28.9665 22.4759 28.2393 23.2047 27.9188L41.7887 18.1358C42.4146 17.807 43.1301 17.8303 43.7128 18.1358Z" fill="white"/>
</svg>
