<svg width="140" height="27" viewBox="0 0 140 27" fill="none" xmlns="http://www.w3.org/2000/svg">
<path d="M138.19 20.9286V20.5408H138.434C138.564 20.5408 138.75 20.5552 138.75 20.7132C138.75 20.8712 138.65 20.9286 138.492 20.9286H138.19ZM138.19 21.2015H138.363L138.75 21.8766H139.167L138.736 21.1728C138.952 21.1872 139.124 21.0292 139.138 20.8137V20.7563C139.138 20.3828 138.88 20.2679 138.449 20.2679H137.831V21.8766H138.19V21.2015ZM140 21.0723C140 20.1243 139.268 19.5785 138.449 19.5785C137.63 19.5785 136.898 20.1243 136.898 21.0723C136.898 22.0203 137.63 22.5661 138.449 22.5661C139.268 22.5661 140 22.0203 140 21.0723ZM139.54 21.0723C139.569 21.6755 139.095 22.1926 138.492 22.2213H138.449C137.817 22.2501 137.285 21.7473 137.257 21.1154C137.228 20.4834 137.731 19.9519 138.363 19.9232C138.995 19.8945 139.526 20.3972 139.555 21.0292C139.54 21.0435 139.54 21.0579 139.54 21.0723ZM83.0492 5.11454V22.0633H87.8322V5.11454H83.0492ZM45.4171 5.08582V22.049H50.2432V8.87775L54.0064 8.89211C55.2417 8.89211 56.1035 9.19375 56.6924 9.82574C57.4536 10.6301 57.7553 11.9372 57.7553 14.3071V22.049H62.4377V12.684C62.4377 5.99071 58.1718 5.08582 54.0064 5.08582H45.4171ZM90.7623 5.11454V22.0633H98.5186C102.655 22.0633 104.005 21.3739 105.456 19.837C106.49 18.7598 107.151 16.3754 107.151 13.7757C107.151 11.3913 106.591 9.26556 105.6 7.94413C103.847 5.57417 101.291 5.11454 97.47 5.11454H90.7623ZM95.5023 8.79157H97.5562C100.544 8.79157 102.469 10.1274 102.469 13.6033C102.469 17.0792 100.544 18.4294 97.5562 18.4294H95.5023V8.79157ZM76.1548 5.11454L72.1617 18.5443L68.3411 5.11454H63.1703L68.6284 22.0633H75.5228L81.0383 5.11454H76.1548ZM109.392 22.0633H114.175V5.11454H109.392V22.0633ZM122.807 5.11454L116.128 22.049H120.839L121.902 19.047H129.802L130.807 22.0346H135.935L129.199 5.11454H122.807ZM125.91 8.20267L128.811 16.1313H122.922L125.91 8.20267Z" fill="white"/>
<path d="M14.5501 7.92974V5.60287C14.7799 5.5885 15.0097 5.57414 15.2396 5.57414C21.6169 5.37305 25.7967 11.061 25.7967 11.061C25.7967 11.061 21.2865 17.3234 16.4461 17.3234C15.7997 17.3234 15.1677 17.2229 14.5645 17.0218V9.95497C17.0493 10.2566 17.5521 11.3482 19.0315 13.8331L22.3494 11.0466C22.3494 11.0466 19.922 7.87228 15.8428 7.87228C15.4119 7.85792 14.981 7.88665 14.5501 7.92974ZM14.5501 0.230957V3.7069L15.2396 3.66381C24.1018 3.36218 29.8902 10.9317 29.8902 10.9317C29.8902 10.9317 23.2543 19.0039 16.3455 19.0039C15.7423 19.0039 15.1534 18.9465 14.5645 18.8459V21.0004C15.0528 21.0579 15.5556 21.101 16.0439 21.101C22.4787 21.101 27.1325 17.8118 31.6426 13.9336C32.3895 14.5369 35.4489 15.9876 36.0808 16.6196C31.8006 20.2104 21.818 23.0975 16.1588 23.0975C15.613 23.0975 15.0959 23.0688 14.5788 23.0113V26.042H39.0253V0.230957L14.5501 0.230957ZM14.5501 17.0218V18.8603C8.60367 17.7974 6.95188 11.6068 6.95188 11.6068C6.95188 11.6068 9.8102 8.44682 14.5501 7.92974V9.94061H14.5358C12.0509 9.63898 10.0975 11.9658 10.0975 11.9658C10.0975 11.9658 11.2034 15.8871 14.5501 17.0218ZM3.99302 11.3482C3.99302 11.3482 7.51205 6.14868 14.5645 5.60287V3.7069C6.75079 4.33889 0 10.946 0 10.946C0 10.946 3.82066 22.0059 14.5501 23.0113V21.0004C6.67898 20.0237 3.99302 11.3482 3.99302 11.3482Z" fill="#76B900"/>
</svg>
