<svg width="140" height="41" viewBox="0 0 140 41" fill="none" xmlns="http://www.w3.org/2000/svg">
<path d="M51.0282 15.2054C50.6582 15.0822 49.8775 14.9999 49.0966 14.9999C46.7541 14.9999 44.2472 16.8975 44.2472 19.24V30.4109H38.9049V10.4795H44.0418V12.493C45.2336 11.0136 47.4116 10.0685 49.8363 10.0685C50.4426 10.0728 51.0474 10.1278 51.6446 10.2328L51.0282 15.2054ZM57.0688 0C59.0004 0 60.562 1.4795 60.562 3.41092C60.562 5.3425 59.0006 6.82185 57.0688 6.82185C55.1372 6.82185 53.5757 5.3425 53.5757 3.41092C53.5757 1.47966 55.1374 0 57.0688 0ZM59.7401 30.4109H54.3976V10.4795H59.7401V30.4109ZM75.5213 10.0675C73.4011 10.0407 71.3377 10.7534 69.6861 12.0831V10.4793H64.5478V40.2728H69.8908V29.0139C71.4102 30.2143 73.2975 30.8531 75.2336 30.8225C78.1928 30.8225 81.0277 29.5064 82.7948 27.4515C84.3572 25.6429 85.3006 23.1785 85.3006 20.4657C85.3006 14.5889 80.945 10.0675 75.5213 10.0675ZM74.8721 25.9719C71.5533 25.9719 69.3722 23.6818 69.3722 20.483C69.3722 17.2843 71.5533 14.9941 74.8719 14.9941C77.7046 14.9941 80.0014 17.452 80.0014 20.4832C80.0014 23.5142 77.7046 25.972 74.8719 25.972L74.8721 25.9719ZM117.726 30.4109H112.383V1.23279H117.726V30.4109ZM139.507 27.2463C137.575 29.5478 134.41 30.8217 131.328 30.8217C125.37 30.8217 120.89 26.7124 120.89 20.4657C120.89 14.9177 124.671 10.0685 130.589 10.0685C136.096 10.0685 140 14.7122 140 20.2602C140.003 20.7697 139.962 21.2784 139.876 21.7807H126.068C126.356 24.5751 128.616 26.5067 131.452 26.5067C133.712 26.5067 135.52 25.2327 136.465 24.2053L139.507 27.2463ZM134.534 17.8767C134.37 16.1096 132.767 14.3835 130.589 14.3835C128.369 14.3835 126.561 16.0684 126.315 17.8767H134.534ZM99.4393 10.0675C97.3191 10.0407 95.2557 10.7534 93.604 12.0831V10.4793H88.4659V40.2728H93.8088V29.0139C95.3282 30.2143 97.2156 30.8532 99.1517 30.8225C102.111 30.8225 104.946 29.5064 106.713 27.4515C108.275 25.6429 109.219 23.1785 109.219 20.4657C109.219 14.5889 104.863 10.0675 99.4393 10.0675ZM98.7901 25.9719C95.4713 25.9719 93.2901 23.6818 93.2901 20.483C93.2901 17.2843 95.4715 14.994 98.7901 14.994C101.623 14.994 103.919 17.452 103.919 20.483C103.919 23.514 101.623 25.972 98.7901 25.972V25.9719Z" fill="white"/>
<path d="M27.8914 23.1494C26.6851 22.4528 25.3268 22.251 23.9815 22.204C22.8524 22.1646 21.1682 21.4413 21.1682 19.3877C21.1682 17.8577 22.4085 16.6264 23.982 16.5714C25.3273 16.5244 26.6854 16.3223 27.8914 15.626C28.9747 15.0006 29.8742 14.1011 30.4996 13.0179C31.125 11.9347 31.4542 10.7059 31.4542 9.4551C31.4542 8.20431 31.1249 6.97555 30.4995 5.89234C29.8741 4.80913 28.9745 3.90963 27.8913 3.28426C26.8081 2.65889 25.5793 2.32968 24.3285 2.32971C23.0777 2.32975 21.8489 2.65903 20.7657 3.28447C19.6826 3.90991 18.7831 4.80946 18.1577 5.8927C17.5324 6.97595 17.2032 8.20473 17.2032 9.45552C17.2032 10.8361 17.6943 12.1064 18.3208 13.2849C18.8477 14.2759 19.1143 16.1153 17.3071 17.1586C15.9627 17.9348 14.2849 17.4433 13.4468 16.1021C12.7389 14.9692 11.8843 13.9078 10.6879 13.2169C9.60471 12.5915 8.376 12.2623 7.12525 12.2623C5.8745 12.2623 4.64579 12.5916 3.56262 13.2169C2.47945 13.8423 1.57997 14.7418 0.9546 15.825C0.32923 16.9082 0 18.1369 0 19.3876C0 20.6384 0.32923 21.8671 0.9546 22.9503C1.57997 24.0334 2.47945 24.9329 3.56262 25.5583C4.64579 26.1837 5.8745 26.5129 7.12525 26.5129C8.376 26.513 9.60471 26.1837 10.6879 25.5584C11.884 24.8678 12.7386 23.807 13.446 22.6749C14.027 21.7451 15.478 20.5602 17.3069 21.617C18.6494 22.3926 19.0643 24.0919 18.3201 25.4915C17.6938 26.6696 17.2034 27.9398 17.2034 29.3201C17.2034 30.5708 17.5326 31.7995 18.158 32.8827C18.7833 33.9659 19.6828 34.8654 20.766 35.4908C21.8492 36.1162 23.0779 36.4454 24.3287 36.4455C25.5794 36.4455 26.8082 36.1162 27.8914 35.4908C28.9746 34.8655 29.874 33.966 30.4994 32.8828C31.1248 31.7996 31.454 30.5709 31.454 29.3201C31.454 28.0693 31.1248 26.8406 30.4994 25.7574C29.874 24.6742 28.9745 23.7748 27.8913 23.1494H27.8914Z" fill="url(#paint0_linear_22_144)"/>
<defs>
<linearGradient id="paint0_linear_22_144" x1="8.87062" y1="7.56514" x2="32.5156" y2="31.2101" gradientUnits="userSpaceOnUse">
<stop stop-color="#00AAE4"/>
<stop offset="1" stop-color="#006097"/>
</linearGradient>
</defs>
</svg>
