<svg width="141" height="27" viewBox="0 0 141 27" fill="none" xmlns="http://www.w3.org/2000/svg">
<g clip-path="url(#clip0_22_157)">
<path d="M48.1752 14.9083H53.4487C54.1894 14.9083 54.7898 15.5133 54.7898 16.2596C54.7898 17.0059 54.1894 17.6109 53.4487 17.6109H47.088C46.9887 17.6109 46.8927 17.6466 46.8172 17.7116L44.8968 19.3671C44.6027 19.6205 44.7806 20.1056 45.1675 20.1056H53.1301C53.1333 20.1056 53.136 20.1029 53.136 20.0996C53.136 20.0961 53.139 20.0934 53.1424 20.0936C53.2426 20.1016 53.3439 20.1056 53.4461 20.1056C55.5583 20.1056 57.2706 18.3837 57.2706 16.2596C57.2706 14.2425 55.7265 12.5881 53.7622 12.4266C53.7588 12.4262 53.7562 12.4234 53.7562 12.42C53.7562 12.4165 53.7533 12.4136 53.7498 12.4136H48.0687C47.3279 12.4136 46.7274 11.8086 46.7274 11.0623C46.7274 10.316 47.3279 9.71098 48.0687 9.71098H54.4205C54.525 9.71098 54.6258 9.67133 54.7027 9.59995L56.4861 7.94458C56.765 7.68562 56.5831 7.21631 56.2038 7.21631H48.1752C48.1748 7.21631 48.1745 7.21656 48.1745 7.21695C48.1745 7.21733 48.1742 7.21765 48.1738 7.21765C48.1397 7.21676 48.1055 7.21631 48.0712 7.21631C45.9589 7.21631 44.2467 8.9382 44.2467 11.0623C44.2467 13.1864 45.9589 14.9083 48.0712 14.9083C48.1055 14.9083 48.1397 14.9078 48.1738 14.9069C48.1742 14.9069 48.1745 14.9072 48.1745 14.9076C48.1745 14.908 48.1748 14.9083 48.1752 14.9083Z" fill="white"/>
<path d="M78.8897 7.21631C78.6588 7.21631 78.472 7.40415 78.472 7.63592V19.686C78.472 19.9177 78.6588 20.1056 78.8897 20.1056H88.5458C88.6609 20.1056 88.7715 20.0576 88.8502 19.9729L90.059 18.6769C90.3091 18.4088 90.1197 17.9702 89.7546 17.9702H81.3232C81.093 17.9702 80.9062 17.7823 80.9062 17.5505V7.63592C80.9062 7.40415 80.7188 7.21631 80.4886 7.21631H78.8897Z" fill="white"/>
<path fill-rule="evenodd" clip-rule="evenodd" d="M63.4235 7.21631C63.4229 7.21631 63.4224 7.21682 63.4224 7.2174C63.4224 7.21804 63.4219 7.21855 63.4213 7.21855C62.1871 7.27201 61.1961 8.26519 61.1427 9.50204C61.1427 9.50261 61.1421 9.50312 61.1416 9.50312C61.1412 9.50312 61.1409 9.50325 61.1407 9.50351C61.1405 9.5037 61.1404 9.50396 61.1404 9.50421V17.6098C61.1404 17.6104 61.1409 17.6109 61.1415 17.6109C61.1421 17.6109 61.1426 17.6114 61.1426 17.612C61.1412 17.6461 61.1404 17.6804 61.1404 17.7148C61.1404 19 62.1523 20.0483 63.4213 20.1033C63.4219 20.1033 63.4224 20.1039 63.4224 20.1044L63.4225 20.1049L63.4228 20.1053C63.423 20.1055 63.4233 20.1056 63.4235 20.1056H72.1852C72.1858 20.1056 72.1865 20.1051 72.1865 20.1044V20.1038L72.1871 20.1035L72.1877 20.1033C73.4566 20.0483 74.4684 19 74.4684 17.7148C74.4684 17.6804 74.4678 17.6461 74.4665 17.612C74.4665 17.6114 74.4671 17.6109 74.4671 17.6109C74.4678 17.6109 74.4684 17.6104 74.4684 17.6098V9.50421C74.4684 9.50364 74.4678 9.50312 74.4671 9.50312C74.4665 9.50312 74.4665 9.50261 74.4665 9.50204C74.4128 8.26519 73.4221 7.27201 72.1877 7.21855C72.1871 7.21855 72.1865 7.21804 72.1865 7.2174C72.1865 7.21682 72.1858 7.21631 72.1852 7.21631H63.4235ZM65.0566 9.50312L65.056 9.50338V9.50383C65.056 9.50421 65.056 9.50453 65.0554 9.50453C64.284 9.53817 63.6646 10.1629 63.6312 10.9409C63.6312 10.9412 63.6309 10.9416 63.6305 10.9416C63.6302 10.9416 63.6298 10.9419 63.6298 10.9423V16.041C63.6298 16.0414 63.6302 16.0416 63.6305 16.0416C63.6309 16.0416 63.6312 16.0419 63.6312 16.0423C63.6303 16.0638 63.6298 16.0854 63.6298 16.107C63.6298 16.9155 64.2623 17.5749 65.0554 17.6094C65.056 17.6095 65.056 17.6098 65.056 17.6101V17.6106L65.0566 17.6108V17.6109H70.5524V17.6108L70.553 17.6105V17.6101C70.553 17.6098 70.553 17.6095 70.5537 17.6094C71.3467 17.5749 71.9792 16.9155 71.9792 16.107C71.9792 16.0854 71.9786 16.0638 71.978 16.0423V16.0422V16.042L71.9786 16.0416C71.9786 16.0416 71.9792 16.0414 71.9792 16.041V10.9423C71.9792 10.9419 71.9786 10.9416 71.9786 10.9416C71.978 10.9416 71.978 10.9412 71.978 10.9409C71.9441 10.1629 71.325 9.53817 70.5537 9.50453C70.553 9.50453 70.553 9.50421 70.553 9.50383V9.50344L70.5524 9.50319V9.50312H65.0566Z" fill="white"/>
<path fill-rule="evenodd" clip-rule="evenodd" d="M104.101 19.686C104.101 19.9177 104.286 20.1056 104.514 20.1056H106.152C106.381 20.1056 106.566 19.9177 106.566 19.686V9.71207C106.566 9.71149 106.565 9.71098 106.565 9.71098V9.71085L106.564 9.71073C106.564 9.71047 106.564 9.71021 106.564 9.70983C106.565 9.67574 106.566 9.64146 106.566 9.60705C106.566 8.32185 105.564 7.27355 104.307 7.21855C104.307 7.21855 104.306 7.21804 104.306 7.2174C104.306 7.21682 104.305 7.21631 104.305 7.21631H95.8931C95.8924 7.21631 95.8918 7.21676 95.8918 7.2174C95.8918 7.21797 95.8912 7.21848 95.8905 7.21848C95.8573 7.21701 95.8234 7.21631 95.7895 7.21631C94.4841 7.21631 93.4263 8.28668 93.4263 9.60705C93.4263 9.64146 93.4269 9.67574 93.4282 9.70983C93.4282 9.71047 93.4282 9.71098 93.4276 9.71098C93.4269 9.71098 93.4263 9.71149 93.4263 9.71207V19.686C93.4263 19.9177 93.6118 20.1056 93.8401 20.1056H95.478C95.7063 20.1056 95.8918 19.9177 95.8918 19.686V15.5359C95.8918 15.3041 96.0773 15.1162 96.3056 15.1162H103.686C103.915 15.1162 104.101 15.3041 104.101 15.5359V19.686ZM95.8918 12.8255V10.7505C95.8918 9.94672 96.5358 9.2952 97.3302 9.2952H102.662C103.457 9.2952 104.101 9.94672 104.101 10.7505V12.8255C104.101 13.0573 103.915 13.2451 103.686 13.2451H96.3062C96.0773 13.2451 95.8918 13.0573 95.8918 12.8255Z" fill="white"/>
<path fill-rule="evenodd" clip-rule="evenodd" d="M138.669 20.1056C138.439 20.1056 138.251 19.9177 138.251 19.686V15.5359C138.251 15.3041 138.064 15.1162 137.834 15.1162H130.371C130.14 15.1162 129.954 15.3041 129.954 15.5359V19.686C129.954 19.9177 129.766 20.1056 129.535 20.1056H127.882C127.651 20.1056 127.464 19.9177 127.464 19.686V9.71207V9.71181L127.464 9.71143C127.464 9.71117 127.465 9.71098 127.465 9.71098C127.466 9.71098 127.466 9.71047 127.466 9.70983C127.465 9.67574 127.464 9.64146 127.464 9.60705C127.464 8.28668 128.532 7.21631 129.85 7.21631C129.884 7.21631 129.918 7.21701 129.952 7.21848C129.953 7.21848 129.954 7.21797 129.954 7.2174C129.954 7.21676 129.954 7.21631 129.954 7.21631H138.458C138.458 7.21631 138.459 7.21682 138.459 7.2174C138.459 7.21804 138.459 7.21855 138.46 7.21855C139.729 7.27355 140.741 8.32185 140.741 9.60705C140.741 9.64146 140.74 9.67574 140.738 9.70983C140.738 9.71047 140.739 9.71098 140.74 9.71098C140.74 9.71098 140.74 9.71111 140.74 9.7113C140.74 9.71149 140.741 9.71181 140.741 9.71207V19.686C140.741 19.9177 140.554 20.1056 140.323 20.1056H138.669ZM129.954 10.7505V12.8255C129.954 13.0573 130.14 13.2451 130.371 13.2451H137.834C138.064 13.2451 138.251 13.0573 138.251 12.8255V10.7505C138.251 9.94672 137.601 9.2952 136.799 9.2952H131.405C130.603 9.2952 129.954 9.94672 129.954 10.7505Z" fill="white"/>
<path d="M112.73 7.21631C112.852 7.21631 112.967 7.27016 113.045 7.36366L120.39 16.1191C120.64 16.416 121.119 16.2369 121.119 15.8468V7.63592C121.119 7.40415 121.304 7.21631 121.533 7.21631H123.171C123.399 7.21631 123.585 7.40415 123.585 7.63592V19.686C123.585 19.9177 123.399 20.1056 123.171 20.1056H121.135C121.126 20.1056 121.119 20.0985 121.119 20.0899C121.119 20.0861 121.117 20.0824 121.115 20.0796L113.647 11.3852C113.395 11.0931 112.921 11.2735 112.921 11.6612V19.686C112.921 19.9177 112.736 20.1056 112.508 20.1056H110.859C110.63 20.1056 110.445 19.9177 110.445 19.686V7.63592C110.445 7.40415 110.63 7.21631 110.859 7.21631H112.73Z" fill="white"/>
<path d="M6.17379 20.5495C6.37799 20.3454 6.65486 20.2308 6.94353 20.2308H33.5787C34.0639 20.2308 34.3068 20.8175 33.9636 21.1605L28.7005 26.4194C28.4963 26.6234 28.2195 26.7381 27.9308 26.7381H1.2956C0.810391 26.7381 0.567496 26.1513 0.910728 25.8083L6.17379 20.5495Z" fill="url(#paint0_linear_22_157)"/>
<path d="M6.17379 0.902644C6.37799 0.698601 6.65486 0.583984 6.94353 0.583984H33.5787C34.0639 0.583984 34.3068 1.17071 33.9636 1.51367L28.7005 6.77254C28.4963 6.97659 28.2195 7.0912 27.9308 7.0912H1.2956C0.810391 7.0912 0.567496 6.50447 0.910728 6.16151L6.17379 0.902644Z" fill="url(#paint1_linear_22_157)"/>
<path d="M28.7005 10.6634C28.4963 10.4594 28.2195 10.3447 27.9308 10.3447H1.2956C0.810391 10.3447 0.567496 10.9315 0.910728 11.2745L6.17379 16.5333C6.37799 16.7373 6.65486 16.8519 6.94353 16.8519H33.5787C34.0639 16.8519 34.3068 16.2652 33.9636 15.9223L28.7005 10.6634Z" fill="url(#paint2_linear_22_157)"/>
</g>
<defs>
<linearGradient id="paint0_linear_22_157" x1="23.313" y1="-6.59021" x2="4.87918" y2="28.718" gradientUnits="userSpaceOnUse">
<stop stop-color="#00FFA3"/>
<stop offset="1" stop-color="#DC1FFF"/>
</linearGradient>
<linearGradient id="paint1_linear_22_157" x1="23.313" y1="-6.59023" x2="4.87919" y2="28.718" gradientUnits="userSpaceOnUse">
<stop stop-color="#00FFA3"/>
<stop offset="1" stop-color="#DC1FFF"/>
</linearGradient>
<linearGradient id="paint2_linear_22_157" x1="23.313" y1="-6.59028" x2="4.87919" y2="28.7179" gradientUnits="userSpaceOnUse">
<stop stop-color="#00FFA3"/>
<stop offset="1" stop-color="#DC1FFF"/>
</linearGradient>
<clipPath id="clip0_22_157">
<rect width="140" height="26.1581" fill="white" transform="translate(0.75 0.583984)"/>
</clipPath>
</defs>
</svg>
