<svg width="140" height="19" viewBox="0 0 140 19" fill="none" xmlns="http://www.w3.org/2000/svg">
<path d="M119.606 7.23418V18.2424H123.136V10.9131H135.984V18.2424H139.512V7.25327L119.606 7.23418ZM122.743 3.67329H136.317C138.202 3.29851 139.605 1.63462 140 0.0249874H119.06C119.452 1.63512 120.874 3.29851 122.743 3.67329ZM108.914 18.2494C110.694 17.4948 111.652 16.1897 112.018 14.6624H96.1847L96.1947 0.0340303L92.6454 0.0440779V18.2494H108.914ZM66.2512 3.62406H78.7877C80.6777 3.07495 82.2647 1.63512 82.6515 0.0390541H62.7371V10.7976H79.0364V14.573L66.2512 14.583C64.2477 15.1417 62.5487 16.4871 61.7011 18.264L62.7371 18.2449H82.5385V7.22062H66.2512V3.62406ZM35.3029 3.65872H48.8728C50.7608 3.28244 52.1639 1.62005 52.5573 0.00891113H31.6185C32.0093 1.62005 33.4331 3.28244 35.3029 3.65872ZM35.3029 10.8538H48.8728C50.7608 10.4816 52.1639 8.81769 52.5573 7.20554H31.6185C32.0093 8.81819 33.4331 10.4816 35.3029 10.8538ZM35.3029 18.2474H48.8728C50.7608 17.8721 52.1639 16.2087 52.5573 14.5986H31.6185C32.0093 16.2092 33.4331 17.8721 35.3029 18.2474ZM0 0.0531208C0.407935 1.64417 1.78547 3.27038 3.67543 3.67781H9.38752L9.67891 3.79286V18.2067H13.2458V3.79286L13.5699 3.67781H19.287C21.198 3.18548 22.5459 1.64417 22.9468 0.0531208V0.017954H0V0.0531208Z" fill="#E82127"/>
</svg>
