<svg width="140" height="39" viewBox="0 0 140 39" fill="none" xmlns="http://www.w3.org/2000/svg">
<path d="M19.0582 38.1946C29.5838 38.1946 38.1165 29.6619 38.1165 19.1364C38.1165 8.61079 29.5838 0.078125 19.0582 0.078125C8.53267 0.078125 0 8.61079 0 19.1364C0 29.6619 8.53267 38.1946 19.0582 38.1946Z" fill="#26A17B"/>
<path d="M21.0898 20.8953V20.8922C20.9581 20.9014 20.2778 20.9413 18.7642 20.9413C17.5539 20.9413 16.7052 20.9076 16.4049 20.8922V20.8953C11.7507 20.69 8.27911 19.8811 8.27911 18.9098C8.27911 17.9416 11.7537 17.1296 16.4049 16.9243V20.0895C16.7082 20.1109 17.5815 20.163 18.7857 20.163C20.2319 20.163 20.955 20.1017 21.0898 20.0895V16.9274C25.7349 17.1358 29.1972 17.9447 29.1972 18.9129C29.1972 19.8811 25.7318 20.69 21.0898 20.8984M21.0898 16.5995V13.7684H27.5702V9.45117H9.92756V13.7684H16.408V16.5995C11.1409 16.8416 7.18219 17.8834 7.18219 19.1335C7.18219 20.3836 11.144 21.4254 16.408 21.6705V30.7462H21.0929V21.6705C26.3507 21.4285 30.3033 20.3867 30.3033 19.1366C30.3033 17.8895 26.3507 16.8447 21.0929 16.6026" fill="white"/>
<path d="M54.3054 10.6307V15.2084H58.7543V18.6432H54.2747V25.6077C54.2747 27.1458 55.1234 27.8965 56.3674 27.8965C56.9894 27.8965 57.7095 27.7004 58.2978 27.4063L59.41 30.8074C58.2671 31.2639 57.3173 31.46 56.107 31.4937C52.6079 31.6254 50.3191 29.6308 50.3191 25.6077V18.6432H47.3102V15.2084H50.3191V11.0566L54.3054 10.6307ZM131.007 14.9939L131.301 16.8568C132.545 14.8622 134.212 14.568 135.848 14.568C137.515 14.568 139.118 15.2206 140 16.1031L138.201 19.5685C137.383 18.8822 136.633 18.5206 135.324 18.5206C133.232 18.5206 131.301 19.6328 131.301 22.608V31.1107H127.312V14.9878L131.007 14.9939ZM121.23 21.1741C120.969 19.0813 119.333 18.0334 117.044 18.0334C114.887 18.0334 113.119 19.0813 112.531 21.1741H121.23ZM112.467 24.4771C112.727 26.4718 114.461 27.9118 117.274 27.9118C118.745 27.9118 120.675 27.3542 121.591 26.4074L124.141 28.926C122.44 30.6909 119.661 31.5427 117.207 31.5427C111.649 31.5427 108.343 28.1079 108.343 22.942C108.343 18.0365 111.679 14.5037 116.913 14.5037C122.308 14.5037 125.679 17.8404 125.057 24.4771H112.467ZM94.8731 8.22241V17.1816C96.3132 15.3187 98.078 14.761 99.9103 14.761C104.488 14.761 106.516 17.868 106.516 22.6111V31.1138H102.527V22.6448C102.527 19.7003 100.989 18.4593 98.8624 18.4593C96.5062 18.4593 94.8731 20.454 94.8731 22.8746V31.1168H90.8837V8.22548L94.8731 8.22241ZM84.2777 10.4469V15.0246H88.7266V18.4593H84.247V25.4239C84.247 26.962 85.0988 27.7127 86.3398 27.7127C86.9618 27.7127 87.6818 27.5166 88.2701 27.2224L89.3823 30.6235C88.2395 31.08 87.2896 31.2761 86.0793 31.3099C82.5802 31.4416 80.2914 29.4439 80.2914 25.4239V18.4593H77.2825V15.0246H80.2914V10.8728L84.2777 10.4469ZM73.2564 21.1741C72.9959 19.0813 71.3597 18.0334 69.0709 18.0334C66.9138 18.0334 65.1459 19.0813 64.5576 21.1741H73.2564ZM64.4932 24.4771C64.7537 26.4718 66.4879 27.9118 69.3007 27.9118C70.7714 27.9118 72.7018 27.3542 73.6179 26.4074L76.1672 28.926C74.4667 30.6909 71.6876 31.5427 69.2333 31.5427C63.6721 31.5427 60.3691 28.1079 60.3691 22.942C60.3691 18.0365 63.7058 14.5037 68.9361 14.5037C74.3318 14.5037 77.6992 17.8404 77.0803 24.4771H64.4932Z" fill="white"/>
</svg>
