<svg width="24" height="25" viewBox="0 0 24 25" fill="none" xmlns="http://www.w3.org/2000/svg">
<path d="M21.593 7.79499C21.4791 7.37239 21.2565 6.98699 20.9474 6.67716C20.6383 6.36732 20.2534 6.14385 19.831 6.02899C18.265 5.59899 12 5.59199 12 5.59199C12 5.59199 5.73602 5.58499 4.16902 5.99599C3.74695 6.11613 3.36285 6.34276 3.05359 6.65412C2.74433 6.96548 2.52031 7.35111 2.40302 7.77399C1.99002 9.33999 1.98602 12.588 1.98602 12.588C1.98602 12.588 1.98202 15.852 2.39202 17.402C2.62202 18.259 3.29702 18.936 4.15502 19.167C5.73702 19.597 11.985 19.604 11.985 19.604C11.985 19.604 18.25 19.611 19.816 19.201C20.2385 19.0863 20.6238 18.8634 20.9337 18.5542C21.2436 18.245 21.4674 17.8602 21.583 17.438C21.997 15.873 22 12.626 22 12.626C22 12.626 22.02 9.36099 21.593 7.79499ZM9.99603 15.597L10.001 9.59699L15.208 12.602L9.99603 15.597Z" fill="#50EBFF"/>
</svg>
